<svg width="22" height="23" viewBox="0 0 22 23" fill="none" xmlns="http://www.w3.org/2000/svg">
<path d="M20.2561 6.30488L15.6683 1.79756L16.822 0.643903C17.2512 0.214634 17.7656 0 18.3652 0C18.964 0 19.4691 0.214634 19.8805 0.643903L21.3829 2.17317C21.7943 2.58455 22 3.08537 22 3.67561C22 4.26585 21.7943 4.76667 21.3829 5.17805L20.2561 6.30488ZM2.14634 22.0268C1.5561 22.0268 1.05063 21.8165 0.629951 21.3958C0.209984 20.9758 0 20.4707 0 19.8805V4.8561C0 4.26585 0.209984 3.76039 0.629951 3.33971C1.05063 2.91974 1.5561 2.70976 2.14634 2.70976H11.7244L5.23171 9.20244C4.92764 9.5065 4.69512 9.85528 4.53415 10.2488C4.37317 10.6423 4.29268 11.0537 4.29268 11.4829V15.5878C4.29268 16.178 4.50302 16.6832 4.92371 17.1031C5.34367 17.5238 5.84878 17.7341 6.43902 17.7341H10.5439C10.9732 17.7341 11.3846 17.6537 11.778 17.4927C12.1715 17.3317 12.5203 17.0992 12.8244 16.7951L19.3171 10.2756V19.8805C19.3171 20.4707 19.1071 20.9758 18.6871 21.3958C18.2664 21.8165 17.761 22.0268 17.1707 22.0268H2.14634ZM7.5122 15.5878C7.20813 15.5878 6.95343 15.4851 6.7481 15.2798C6.54205 15.0738 6.43902 14.8187 6.43902 14.5146V11.9122C6.43902 11.626 6.49268 11.3531 6.6 11.0934C6.70732 10.8344 6.85935 10.6065 7.0561 10.4098L14.139 3.32683L18.7268 7.83415L11.6171 14.9439C11.4203 15.1406 11.1925 15.2973 10.9335 15.4139C10.6738 15.5299 10.4008 15.5878 10.1146 15.5878H7.5122Z" fill="#043253"/>
</svg>
