<svg width="61" height="61" viewBox="0 0 61 61" fill="none" xmlns="http://www.w3.org/2000/svg">
<circle cx="30.0371" cy="30.8359" r="28" fill="white" stroke="#18A4E1" stroke-width="4"/>
<path d="M19.0996 44.8984C18.6569 44.8984 18.2858 44.7487 17.9863 44.4492C17.6868 44.1497 17.5371 43.7786 17.5371 43.3359V37.0859C17.5371 36.2266 17.8431 35.4909 18.4551 34.8789C19.0671 34.2669 19.8027 33.9609 20.6621 33.9609H39.4121C40.2715 33.9609 41.0072 34.2669 41.6191 34.8789C42.2311 35.4909 42.5371 36.2266 42.5371 37.0859V43.3359C42.5371 43.7786 42.3874 44.1497 42.0879 44.4492C41.7884 44.7487 41.4173 44.8984 40.9746 44.8984H19.0996ZM25.3496 32.3984C23.1882 32.3984 21.3457 31.6367 19.8223 30.1133C18.2988 28.5898 17.5371 26.7474 17.5371 24.5859C17.5371 22.4245 18.2988 20.582 19.8223 19.0586C21.3457 17.5352 23.1882 16.7734 25.3496 16.7734H34.7246C36.8861 16.7734 38.7285 17.5352 40.252 19.0586C41.7754 20.582 42.5371 22.4245 42.5371 24.5859C42.5371 26.7474 41.7754 28.5898 40.252 30.1133C38.7285 31.6367 36.8861 32.3984 34.7246 32.3984H25.3496ZM25.3496 26.1484C25.7923 26.1484 26.1634 25.9987 26.4629 25.6992C26.7624 25.3997 26.9121 25.0286 26.9121 24.5859C26.9121 24.1432 26.7624 23.7721 26.4629 23.4727C26.1634 23.1732 25.7923 23.0234 25.3496 23.0234C24.9069 23.0234 24.5358 23.1732 24.2363 23.4727C23.9368 23.7721 23.7871 24.1432 23.7871 24.5859C23.7871 25.0286 23.9368 25.3997 24.2363 25.6992C24.5358 25.9987 24.9069 26.1484 25.3496 26.1484ZM34.7246 26.1484C35.1673 26.1484 35.5384 25.9987 35.8379 25.6992C36.1374 25.3997 36.2871 25.0286 36.2871 24.5859C36.2871 24.1432 36.1374 23.7721 35.8379 23.4727C35.5384 23.1732 35.1673 23.0234 34.7246 23.0234C34.2819 23.0234 33.9108 23.1732 33.6113 23.4727C33.3118 23.7721 33.1621 24.1432 33.1621 24.5859C33.1621 25.0286 33.3118 25.3997 33.6113 25.6992C33.9108 25.9987 34.2819 26.1484 34.7246 26.1484Z" fill="#0077B6"/>
</svg>
