<svg width="39" height="37" viewBox="0 0 39 37" fill="none" xmlns="http://www.w3.org/2000/svg">
<path d="M10 36.5781C12.7614 36.5781 15 34.3396 15 31.5781V27.5781C15 25.0928 17.0147 23.0781 19.5 23.0781C21.9853 23.0781 24 25.0928 24 27.5781V31.5781C24 34.3396 26.2386 36.5781 29 36.5781H30.25C33.0114 36.5781 35.25 34.3396 35.25 31.5781V20.45C35.25 19.4162 36.0881 18.5781 37.1219 18.5781C38.8375 18.5781 39.6493 16.4625 38.3741 15.3148L22.8448 1.33847C20.9433 -0.372904 18.0567 -0.372906 16.1552 1.33847L0.625864 15.3148C-0.649308 16.4625 0.162529 18.5781 1.8781 18.5781C2.91192 18.5781 3.75 19.4162 3.75 20.45V31.5781C3.75 34.3396 5.98858 36.5781 8.75 36.5781H10Z" fill="white"/>
</svg>
