<svg width="41" height="34" viewBox="0 0 41 34" fill="none" xmlns="http://www.w3.org/2000/svg">
<path d="M37.0701 0.449219H4.34285C2.34285 0.449219 0.706482 2.08558 0.706482 4.08558V29.5401C0.706482 31.5401 2.34285 33.1765 4.34285 33.1765H37.0701C39.0701 33.1765 40.7065 31.5401 40.7065 29.5401V4.08558C40.7065 2.08558 39.0701 0.449219 37.0701 0.449219ZM37.0701 19.0856C37.0701 21.847 34.8315 24.0856 32.0701 24.0856H9.34284C6.58142 24.0856 4.34285 21.847 4.34285 19.0856V9.08558C4.34285 6.32416 6.58142 4.08558 9.34285 4.08558H32.0701C34.8315 4.08558 37.0701 6.32416 37.0701 9.08558V19.0856Z" fill="white"/>
</svg>
