<svg width="37" height="27" viewBox="0 0 37 27" fill="none" xmlns="http://www.w3.org/2000/svg">
<path fill-rule="evenodd" clip-rule="evenodd" d="M33.7592 17.3136C32.1181 16.3726 30.2423 19.4528 30.2423 21.3445V22.9869C30.2423 24.8011 31.7129 26.2717 33.5271 26.2717C35.3413 26.2717 36.8119 24.8011 36.8119 22.9869V21.3445C36.8119 19.6879 35.5569 18.3443 33.7592 17.3136Z" fill="white"/>
<path d="M13.8182 13.1394C17.4466 13.1394 20.3879 10.198 20.3879 6.56969C20.3879 2.94135 17.4466 0 13.8182 0C10.1899 0 7.24854 2.94135 7.24854 6.56969C7.24854 10.198 10.1899 13.1394 13.8182 13.1394Z" fill="white"/>
<path fill-rule="evenodd" clip-rule="evenodd" d="M23.6733 13.1394C27.3031 13.1394 30.243 10.1995 30.243 6.56969C30.243 2.93994 27.3031 0 23.6733 0C22.5934 0 22.2091 1.30125 22.6822 2.27195C23.3163 3.57262 23.6733 5.03188 23.6733 6.56969C23.6733 8.10751 23.3163 9.56677 22.6822 10.8674C22.2091 11.8381 22.5934 13.1394 23.6733 13.1394Z" fill="white"/>
<path fill-rule="evenodd" clip-rule="evenodd" d="M13.8186 14.7773C9.43332 14.7773 0.679199 16.9782 0.679199 21.347C0.679199 24.0683 2.88521 26.2743 5.60647 26.2743H22.0307C24.752 26.2743 26.958 24.0683 26.958 21.347C26.958 16.9782 18.2039 14.7773 13.8186 14.7773Z" fill="white"/>
</svg>
