<svg width="36" height="40" viewBox="0 0 36 40" fill="none" xmlns="http://www.w3.org/2000/svg">
<path d="M31.9113 4.64279H27.2664C25.1613 4.64279 23.3858 3.12093 21.6911 1.87217C20.7285 1.16283 19.5439 0.742188 18.2592 0.742188C16.9745 0.742188 15.7899 1.16283 14.8273 1.87217C13.1326 3.12093 11.3571 4.64279 9.25206 4.64279H4.60709C2.46175 4.64279 0.706482 6.39807 0.706482 8.5434V35.8476C0.706482 37.993 2.46175 39.7483 4.60709 39.7483H31.9113C34.0567 39.7483 35.8119 37.993 35.8119 35.8476V8.5434C35.8119 6.39807 34.0567 4.64279 31.9113 4.64279ZM18.2592 4.64279C19.3319 4.64279 20.2095 5.52043 20.2095 6.5931C20.2095 7.66576 19.3319 8.5434 18.2592 8.5434C17.1865 8.5434 16.3089 7.66576 16.3089 6.5931C16.3089 5.52043 17.1865 4.64279 18.2592 4.64279ZM22.1598 29.9967C22.1598 31.0739 21.2866 31.947 20.2095 31.947H10.458C9.38087 31.947 8.50769 31.0739 8.50769 29.9967C8.50769 28.9196 9.38087 28.0464 10.458 28.0464H20.2095C21.2866 28.0464 22.1598 28.9196 22.1598 29.9967ZM28.0107 22.1955C28.0107 23.2726 27.1375 24.1458 26.0604 24.1458H10.458C9.38087 24.1458 8.50769 23.2726 8.50769 22.1955C8.50769 21.1184 9.38087 20.2452 10.458 20.2452H26.0604C27.1375 20.2452 28.0107 21.1184 28.0107 22.1955ZM28.0107 14.3943C28.0107 15.4714 27.1375 16.3446 26.0604 16.3446H10.458C9.38087 16.3446 8.50769 15.4714 8.50769 14.3943C8.50769 13.3172 9.38087 12.444 10.458 12.444H26.0604C27.1375 12.444 28.0107 13.3172 28.0107 14.3943Z" fill="white"/>
</svg>
