<svg width="33" height="33" viewBox="0 0 33 33" fill="none" xmlns="http://www.w3.org/2000/svg">
<path d="M25.9909 14.2944C24.1285 16.1568 21.1075 16.1517 19.2513 14.2832L18.3576 13.3835C16.9976 12.0145 17.0063 9.80175 18.377 8.44341L20.2139 6.6231C20.5746 6.26557 20.576 5.68284 20.2168 5.32368C19.8588 4.96566 19.2783 4.96566 18.9203 5.32368L11.0102 13.2338C10.6517 13.5923 10.2335 13.7715 9.75556 13.7715C9.2776 13.7715 8.85939 13.5923 8.50093 13.2338C8.14246 12.8753 7.96323 12.4496 7.96323 11.9568C7.96323 11.4639 8.14246 11.0382 8.50093 10.6797L17.0145 2.16617C17.7314 1.44924 18.5753 1.09077 19.5461 1.09077C20.517 1.09077 21.3609 1.44924 22.0778 2.16617C22.7955 2.88383 23.959 2.88383 24.6767 2.16617L25.6177 1.2252C25.9761 0.866733 26.4018 0.6875 26.8947 0.6875C27.3876 0.6875 27.8133 0.866733 28.1717 1.2252L32.3389 5.39236C32.6973 5.75083 32.8766 6.1765 32.8766 6.66939C32.8766 7.16228 32.6973 7.58796 32.3389 7.94643L25.9909 14.2944ZM2.40701 32.9494C1.89919 32.9494 1.47351 32.7776 1.12998 32.4341C0.78645 32.0906 0.614685 31.6649 0.614685 31.1571V27.7068C0.614685 27.2289 0.704301 26.7733 0.883534 26.3402C1.06277 25.907 1.31668 25.5262 1.64527 25.1976L9.98279 16.8281C11.8378 14.966 14.8505 14.9581 16.7152 16.8105C18.5862 18.6691 18.5912 21.6941 16.7264 23.5589L8.3665 31.9188C8.03791 32.2474 7.65704 32.5013 7.22389 32.6805C6.79075 32.8598 6.3352 32.9494 5.85724 32.9494H2.40701Z" fill="white"/>
</svg>
