<svg width="39" height="30" viewBox="0 0 39 30" fill="none" xmlns="http://www.w3.org/2000/svg">
<path d="M25.3072 4.82065C24.2381 4.82065 23.3714 3.954 23.3714 2.88493C23.3714 1.81587 24.2381 0.949219 25.3072 0.949219H36.9214C37.9905 0.949219 38.8572 1.81587 38.8572 2.88493C38.8572 3.954 37.9905 4.82065 36.9214 4.82065H25.3072ZM25.3072 12.5635C24.2381 12.5635 23.3714 11.6969 23.3714 10.6278C23.3714 9.55872 24.2381 8.69207 25.3072 8.69207H36.9214C37.9905 8.69207 38.8572 9.55872 38.8572 10.6278C38.8572 11.6969 37.9905 12.5635 36.9214 12.5635H25.3072ZM25.3072 20.3064C24.2381 20.3064 23.3714 19.4397 23.3714 18.3706C23.3714 17.3016 24.2381 16.4349 25.3072 16.4349H36.9214C37.9905 16.4349 38.8572 17.3016 38.8572 18.3706C38.8572 19.4397 37.9905 20.3064 36.9214 20.3064H25.3072ZM11.7572 18.3706C10.1441 18.3706 8.77294 17.8061 7.64377 16.6769C6.51461 15.5477 5.95002 14.1766 5.95002 12.5635C5.95002 10.9504 6.51461 9.57928 7.64377 8.45011C8.77294 7.32094 10.1441 6.75636 11.7572 6.75636C13.3703 6.75636 14.7414 7.32094 15.8706 8.45011C16.9997 9.57928 17.5643 10.9504 17.5643 12.5635C17.5643 14.1766 16.9997 15.5477 15.8706 16.6769C14.7414 17.8061 13.3703 18.3706 11.7572 18.3706ZM3.82074 29.9849C1.78951 29.9849 0.142883 28.3383 0.142883 26.3071C0.142883 25.6296 0.304193 24.9843 0.626812 24.3714C0.949431 23.7584 1.4011 23.2745 1.98181 22.9196C3.4336 22.0485 4.9741 21.3952 6.60333 20.9597C8.23255 20.5241 9.9505 20.3064 11.7572 20.3064C13.5638 20.3064 15.2818 20.5241 16.911 20.9597C18.5402 21.3952 20.0807 22.0485 21.5325 22.9196C22.1132 23.2745 22.5649 23.7584 22.8875 24.3714C23.2101 24.9843 23.3714 25.6296 23.3714 26.3071C23.3714 28.3383 21.7248 29.9849 19.6936 29.9849H3.82074Z" fill="white"/>
</svg>
