<svg width="61" height="61" viewBox="0 0 61 61" fill="none" xmlns="http://www.w3.org/2000/svg">
<circle cx="30.3602" cy="30.1406" r="28" fill="white" stroke="#18A4E1" stroke-width="4"/>
<path d="M20.9852 41.5681C20.1259 41.5681 19.3904 41.2886 18.779 40.7295C18.1665 40.1695 17.8602 39.4967 17.8602 38.7109V28.7109C17.8602 27.9252 18.1665 27.2524 18.779 26.6924C19.3904 26.1333 20.1259 25.8538 20.9852 25.8538C21.8446 25.8538 22.58 26.1333 23.1915 26.6924C23.804 27.2524 24.1102 27.9252 24.1102 28.7109V38.7109C24.1102 39.4967 23.804 40.1695 23.1915 40.7295C22.58 41.2886 21.8446 41.5681 20.9852 41.5681ZM30.3602 41.5681C29.5009 41.5681 28.7654 41.2886 28.154 40.7295C27.5415 40.1695 27.2352 39.4967 27.2352 38.7109V21.5681C27.2352 20.7824 27.5415 20.11 28.154 19.5509C28.7654 18.9909 29.5009 18.7109 30.3602 18.7109C31.2196 18.7109 31.9555 18.9909 32.568 19.5509C33.1795 20.11 33.4852 20.7824 33.4852 21.5681V38.7109C33.4852 39.4967 33.1795 40.1695 32.568 40.7295C31.9555 41.2886 31.2196 41.5681 30.3602 41.5681ZM39.7352 41.5681C38.8759 41.5681 38.1399 41.2886 37.5274 40.7295C36.916 40.1695 36.6102 39.4967 36.6102 38.7109V34.4252C36.6102 33.6395 36.916 32.9667 37.5274 32.4067C38.1399 31.8476 38.8759 31.5681 39.7352 31.5681C40.5946 31.5681 41.3305 31.8476 41.943 32.4067C42.5545 32.9667 42.8602 33.6395 42.8602 34.4252V38.7109C42.8602 39.4967 42.5545 40.1695 41.943 40.7295C41.3305 41.2886 40.5946 41.5681 39.7352 41.5681Z" fill="#0077B6"/>
</svg>
