<svg width="708" height="424" viewBox="0 0 708 424" fill="none" xmlns="http://www.w3.org/2000/svg">
<g filter="url(#filter0_d_1364_831)">
<g filter="url(#filter1_d_1364_831)">
<rect x="40.6152" y="124.574" width="202.649" height="55.2679" rx="20" fill="white"/>
</g>
<g filter="url(#filter2_d_1364_831)">
<rect x="433.35" y="268.73" width="202.649" height="55.2679" rx="20" fill="white"/>
</g>
<g filter="url(#filter3_d_1364_831)">
<rect x="48.9456" y="353.402" width="179.621" height="55.2679" rx="20" fill="white"/>
</g>
<g filter="url(#filter4_d_1364_831)">
<rect x="455.538" y="14.7109" width="179.621" height="55.2679" rx="20" fill="white"/>
</g>
<g filter="url(#filter5_d_1364_831)">
<rect x="507.18" y="145.238" width="185.148" height="46.0566" rx="20" fill="white"/>
</g>
<g filter="url(#filter6_d_1364_831)">
<rect x="14.9097" y="233.27" width="165.804" height="46.0566" rx="20" fill="white"/>
</g>
<path d="M61.4215 262.402L63.6105 244.252H65.9865L71.0245 257.606L76.0625 244.252H78.4385L80.6275 262.402H78.3945L76.6455 248.344L71.7725 261.489H70.2765L65.4035 248.344L63.6545 262.402H61.4215ZM90.0333 262.754C88.8527 262.754 87.793 262.494 86.8543 261.973C85.9157 261.453 85.175 260.745 84.6323 259.85C84.0897 258.948 83.8183 257.933 83.8183 256.803C83.8183 255.967 83.9723 255.186 84.2803 254.46C84.5883 253.734 85.0173 253.096 85.5673 252.546C86.1173 251.989 86.7553 251.556 87.4813 251.248C88.2073 250.94 88.9847 250.786 89.8133 250.786C90.9867 250.786 92.0133 251.028 92.8933 251.512C93.7807 251.996 94.47 252.671 94.9613 253.536C95.46 254.402 95.7093 255.406 95.7093 256.55C95.7093 256.646 95.7057 256.723 95.6983 256.781C95.691 256.84 95.6763 256.917 95.6543 257.012H85.9743C85.9743 257.797 86.1503 258.49 86.5023 259.091C86.8617 259.693 87.353 260.166 87.9763 260.51C88.607 260.848 89.3293 261.016 90.1433 261.016C90.9133 261.016 91.6027 260.859 92.2113 260.543C92.82 260.228 93.348 259.759 93.7953 259.135L95.3573 259.949C94.822 260.837 94.085 261.526 93.1463 262.017C92.215 262.509 91.1773 262.754 90.0333 262.754ZM86.0843 255.439H93.5643C93.4617 254.86 93.2343 254.354 92.8823 253.921C92.5377 253.481 92.1013 253.14 91.5733 252.898C91.0527 252.649 90.477 252.524 89.8463 252.524C89.1863 252.524 88.5887 252.645 88.0533 252.887C87.5253 253.122 87.089 253.459 86.7443 253.899C86.407 254.332 86.187 254.845 86.0843 255.439ZM102.282 262.754C101.358 262.754 100.639 262.45 100.126 261.841C99.6125 261.225 99.3558 260.364 99.3558 259.256V252.755H98.1018V251.138H99.3558V246.925H101.49V251.138H104.196V252.755H101.49V259.124C101.49 259.682 101.6 260.111 101.82 260.411C102.04 260.712 102.355 260.862 102.766 260.862C103.176 260.862 103.543 260.741 103.866 260.499L104.405 262.204C104.119 262.373 103.785 262.505 103.404 262.6C103.03 262.703 102.656 262.754 102.282 262.754ZM112.461 262.754C111.412 262.754 110.463 262.498 109.612 261.984C108.769 261.464 108.098 260.752 107.599 259.85C107.108 258.948 106.862 257.918 106.862 256.759C106.862 255.615 107.104 254.596 107.588 253.701C108.072 252.799 108.736 252.088 109.579 251.567C110.422 251.047 111.383 250.786 112.461 250.786C113.414 250.786 114.283 250.999 115.068 251.424C115.86 251.85 116.472 252.44 116.905 253.195V251.138H119.039V262.402H116.905V260.29C116.414 261.068 115.783 261.673 115.013 262.105C114.243 262.538 113.392 262.754 112.461 262.754ZM113.033 260.917C113.803 260.917 114.481 260.741 115.068 260.389C115.662 260.03 116.128 259.539 116.465 258.915C116.802 258.292 116.971 257.577 116.971 256.77C116.971 255.964 116.802 255.249 116.465 254.625C116.128 254.002 115.662 253.514 115.068 253.162C114.481 252.803 113.803 252.623 113.033 252.623C112.27 252.623 111.592 252.803 110.998 253.162C110.404 253.514 109.935 254.002 109.59 254.625C109.253 255.249 109.084 255.964 109.084 256.77C109.084 257.57 109.253 258.285 109.59 258.915C109.935 259.539 110.404 260.03 110.998 260.389C111.592 260.741 112.27 260.917 113.033 260.917ZM126.46 262.754C125.521 262.754 124.689 262.553 123.963 262.149C123.244 261.739 122.672 261.156 122.247 260.4L123.27 259.08C123.658 259.733 124.128 260.239 124.678 260.598C125.228 260.958 125.818 261.137 126.449 261.137C126.859 261.137 127.23 261.057 127.56 260.895C127.897 260.734 128.165 260.503 128.363 260.202C128.561 259.894 128.66 259.531 128.66 259.113C128.66 258.71 128.557 258.395 128.352 258.167C128.154 257.933 127.857 257.727 127.461 257.551C127.072 257.375 126.584 257.174 125.998 256.946C125.528 256.756 125.074 256.539 124.634 256.297C124.194 256.055 123.831 255.751 123.545 255.384C123.266 255.01 123.127 254.537 123.127 253.965C123.127 253.349 123.292 252.803 123.622 252.326C123.959 251.85 124.421 251.476 125.008 251.204C125.594 250.933 126.262 250.797 127.01 250.797C127.618 250.797 128.209 250.918 128.781 251.16C129.353 251.402 129.895 251.751 130.409 252.205L129.551 253.503C128.788 252.697 127.945 252.293 127.021 252.293C126.463 252.293 126.012 252.436 125.668 252.722C125.323 253.001 125.151 253.364 125.151 253.811C125.151 254.156 125.275 254.446 125.525 254.68C125.774 254.908 126.093 255.106 126.482 255.274C126.87 255.443 127.274 255.608 127.692 255.769C128.322 256.004 128.872 256.246 129.342 256.495C129.818 256.745 130.189 257.067 130.453 257.463C130.717 257.852 130.849 258.376 130.849 259.036C130.849 259.806 130.665 260.47 130.299 261.027C129.939 261.585 129.43 262.014 128.77 262.314C128.11 262.608 127.34 262.754 126.46 262.754Z" fill="#043253"/>
<path d="M69.6834 158.664V140.514H74.0394C75.3301 140.514 76.5291 140.745 77.6364 141.207C78.7438 141.669 79.7118 142.314 80.5404 143.143C81.3764 143.964 82.0254 144.929 82.4874 146.036C82.9568 147.136 83.1914 148.324 83.1914 149.6C83.1914 150.876 82.9604 152.064 82.4984 153.164C82.0364 154.264 81.3874 155.228 80.5514 156.057C79.7228 156.878 78.7511 157.52 77.6364 157.982C76.5291 158.437 75.3301 158.664 74.0394 158.664H69.6834ZM71.9164 156.662H73.8194C74.8094 156.662 75.7298 156.486 76.5804 156.134C77.4311 155.775 78.1718 155.276 78.8024 154.638C79.4404 153.993 79.9354 153.241 80.2874 152.383C80.6394 151.525 80.8154 150.594 80.8154 149.589C80.8154 148.584 80.6394 147.653 80.2874 146.795C79.9354 145.937 79.4404 145.189 78.8024 144.551C78.1718 143.913 77.4311 143.414 76.5804 143.055C75.7298 142.696 74.8094 142.516 73.8194 142.516H71.9164V156.662ZM91.8359 159.016C90.7872 159.016 89.8376 158.759 88.9869 158.246C88.1436 157.725 87.4726 157.014 86.9739 156.112C86.4826 155.21 86.2369 154.18 86.2369 153.021C86.2369 151.877 86.4789 150.858 86.9629 149.963C87.4469 149.061 88.1106 148.35 88.9539 147.829C89.7972 147.308 90.7579 147.048 91.8359 147.048C92.7892 147.048 93.6582 147.261 94.4429 147.686C95.2349 148.111 95.8472 148.702 96.2799 149.457V147.4H98.4139V158.664H96.2799V156.552C95.7886 157.329 95.1579 157.934 94.3879 158.367C93.6179 158.8 92.7672 159.016 91.8359 159.016ZM92.4079 157.179C93.1779 157.179 93.8562 157.003 94.4429 156.651C95.0369 156.292 95.5026 155.8 95.8399 155.177C96.1772 154.554 96.3459 153.839 96.3459 153.032C96.3459 152.225 96.1772 151.51 95.8399 150.887C95.5026 150.264 95.0369 149.776 94.4429 149.424C93.8562 149.065 93.1779 148.885 92.4079 148.885C91.6452 148.885 90.9669 149.065 90.3729 149.424C89.7789 149.776 89.3096 150.264 88.9649 150.887C88.6276 151.51 88.4589 152.225 88.4589 153.032C88.4589 153.831 88.6276 154.546 88.9649 155.177C89.3096 155.8 89.7789 156.292 90.3729 156.651C90.9669 157.003 91.6452 157.179 92.4079 157.179ZM105.834 159.016C104.896 159.016 104.063 158.814 103.337 158.411C102.619 158 102.047 157.417 101.621 156.662L102.644 155.342C103.033 155.995 103.502 156.501 104.052 156.86C104.602 157.219 105.193 157.399 105.823 157.399C106.234 157.399 106.604 157.318 106.934 157.157C107.272 156.996 107.539 156.765 107.737 156.464C107.935 156.156 108.034 155.793 108.034 155.375C108.034 154.972 107.932 154.656 107.726 154.429C107.528 154.194 107.231 153.989 106.835 153.813C106.447 153.637 105.959 153.435 105.372 153.208C104.903 153.017 104.448 152.801 104.008 152.559C103.568 152.317 103.205 152.013 102.919 151.646C102.641 151.272 102.501 150.799 102.501 150.227C102.501 149.611 102.666 149.065 102.996 148.588C103.334 148.111 103.796 147.737 104.382 147.466C104.969 147.195 105.636 147.059 106.384 147.059C106.993 147.059 107.583 147.18 108.155 147.422C108.727 147.664 109.27 148.012 109.783 148.467L108.925 149.765C108.163 148.958 107.319 148.555 106.395 148.555C105.838 148.555 105.387 148.698 105.042 148.984C104.698 149.263 104.525 149.626 104.525 150.073C104.525 150.418 104.65 150.707 104.899 150.942C105.149 151.169 105.468 151.367 105.856 151.536C106.245 151.705 106.648 151.87 107.066 152.031C107.697 152.266 108.247 152.508 108.716 152.757C109.193 153.006 109.563 153.329 109.827 153.725C110.091 154.114 110.223 154.638 110.223 155.298C110.223 156.068 110.04 156.732 109.673 157.289C109.314 157.846 108.804 158.275 108.144 158.576C107.484 158.869 106.714 159.016 105.834 159.016ZM113.853 158.664V139.733H115.987V148.852C116.332 148.339 116.827 147.91 117.472 147.565C118.117 147.22 118.884 147.048 119.771 147.048C120.644 147.048 121.399 147.231 122.037 147.598C122.675 147.957 123.166 148.478 123.511 149.16C123.863 149.842 124.039 150.656 124.039 151.602V158.664H121.905V152.031C121.905 150.975 121.652 150.165 121.146 149.6C120.64 149.028 119.929 148.742 119.012 148.742C118.381 148.742 117.839 148.87 117.384 149.127C116.937 149.384 116.592 149.725 116.35 150.15C116.108 150.568 115.987 151.026 115.987 151.525V158.664H113.853ZM134.922 159.016C133.991 159.016 133.137 158.8 132.359 158.367C131.582 157.927 130.951 157.322 130.467 156.552V158.664H128.333V139.744H130.467V149.457C130.922 148.702 131.534 148.111 132.304 147.686C133.082 147.261 133.94 147.048 134.878 147.048C135.956 147.048 136.921 147.308 137.771 147.829C138.622 148.35 139.289 149.061 139.773 149.963C140.265 150.858 140.51 151.881 140.51 153.032C140.51 154.191 140.261 155.221 139.762 156.123C139.271 157.025 138.604 157.733 137.76 158.246C136.917 158.759 135.971 159.016 134.922 159.016ZM134.35 157.179C135.12 157.179 135.799 157.003 136.385 156.651C136.979 156.292 137.445 155.8 137.782 155.177C138.12 154.554 138.288 153.842 138.288 153.043C138.288 152.236 138.116 151.521 137.771 150.898C137.434 150.267 136.968 149.776 136.374 149.424C135.788 149.065 135.113 148.885 134.35 148.885C133.588 148.885 132.906 149.065 132.304 149.424C131.71 149.776 131.241 150.267 130.896 150.898C130.559 151.521 130.39 152.236 130.39 153.043C130.39 153.842 130.559 154.554 130.896 155.177C131.234 155.8 131.699 156.292 132.293 156.651C132.895 157.003 133.58 157.179 134.35 157.179ZM149.634 159.016C148.439 159.016 147.361 158.763 146.4 158.257C145.447 157.751 144.688 157.047 144.123 156.145C143.566 155.243 143.287 154.205 143.287 153.032C143.287 151.851 143.566 150.814 144.123 149.919C144.688 149.017 145.447 148.313 146.4 147.807C147.361 147.301 148.439 147.048 149.634 147.048C150.829 147.048 151.904 147.301 152.857 147.807C153.818 148.313 154.577 149.017 155.134 149.919C155.699 150.814 155.981 151.851 155.981 153.032C155.981 154.205 155.699 155.243 155.134 156.145C154.577 157.047 153.818 157.751 152.857 158.257C151.904 158.763 150.829 159.016 149.634 159.016ZM149.645 157.157C150.43 157.157 151.134 156.981 151.757 156.629C152.38 156.277 152.872 155.789 153.231 155.166C153.59 154.543 153.77 153.831 153.77 153.032C153.77 152.225 153.59 151.514 153.231 150.898C152.872 150.275 152.38 149.787 151.757 149.435C151.134 149.083 150.43 148.907 149.645 148.907C148.853 148.907 148.145 149.083 147.522 149.435C146.899 149.787 146.407 150.275 146.048 150.898C145.689 151.514 145.509 152.225 145.509 153.032C145.509 153.831 145.689 154.543 146.048 155.166C146.407 155.789 146.899 156.277 147.522 156.629C148.145 156.981 148.853 157.157 149.645 157.157ZM164.26 159.016C163.211 159.016 162.261 158.759 161.411 158.246C160.567 157.725 159.896 157.014 159.398 156.112C158.906 155.21 158.661 154.18 158.661 153.021C158.661 151.877 158.903 150.858 159.387 149.963C159.871 149.061 160.534 148.35 161.378 147.829C162.221 147.308 163.182 147.048 164.26 147.048C165.213 147.048 166.082 147.261 166.867 147.686C167.659 148.111 168.271 148.702 168.704 149.457V147.4H170.838V158.664H168.704V156.552C168.212 157.329 167.582 157.934 166.812 158.367C166.042 158.8 165.191 159.016 164.26 159.016ZM164.832 157.179C165.602 157.179 166.28 157.003 166.867 156.651C167.461 156.292 167.926 155.8 168.264 155.177C168.601 154.554 168.77 153.839 168.77 153.032C168.77 152.225 168.601 151.51 168.264 150.887C167.926 150.264 167.461 149.776 166.867 149.424C166.28 149.065 165.602 148.885 164.832 148.885C164.069 148.885 163.391 149.065 162.797 149.424C162.203 149.776 161.733 150.264 161.389 150.887C161.051 151.51 160.883 152.225 160.883 153.032C160.883 153.831 161.051 154.546 161.389 155.177C161.733 155.8 162.203 156.292 162.797 156.651C163.391 157.003 164.069 157.179 164.832 157.179ZM175.341 158.664V147.4H177.475V149.05C177.849 148.397 178.326 147.902 178.905 147.565C179.485 147.22 180.141 147.048 180.874 147.048C181.226 147.048 181.582 147.092 181.941 147.18C182.308 147.261 182.623 147.371 182.887 147.51L182.007 149.314C181.78 149.189 181.516 149.09 181.215 149.017C180.915 148.944 180.632 148.907 180.368 148.907C179.877 148.907 179.408 149.035 178.96 149.292C178.52 149.541 178.161 149.868 177.882 150.271C177.611 150.674 177.475 151.107 177.475 151.569V158.664H175.341ZM190.288 159.016C189.246 159.016 188.3 158.759 187.45 158.246C186.606 157.733 185.935 157.025 185.437 156.123C184.945 155.221 184.7 154.191 184.7 153.032C184.7 151.881 184.942 150.858 185.426 149.963C185.917 149.061 186.584 148.35 187.428 147.829C188.278 147.308 189.246 147.048 190.332 147.048C191.27 147.048 192.125 147.261 192.895 147.686C193.672 148.111 194.288 148.702 194.743 149.457V139.733H196.877V158.664H194.743V156.552C194.259 157.322 193.628 157.927 192.851 158.367C192.073 158.8 191.219 159.016 190.288 159.016ZM190.86 157.179C191.63 157.179 192.312 157.003 192.906 156.651C193.5 156.292 193.965 155.8 194.303 155.177C194.64 154.554 194.809 153.842 194.809 153.043C194.809 152.236 194.64 151.521 194.303 150.898C193.965 150.267 193.5 149.776 192.906 149.424C192.312 149.065 191.633 148.885 190.871 148.885C190.108 148.885 189.43 149.065 188.836 149.424C188.242 149.776 187.772 150.267 187.428 150.898C187.09 151.521 186.922 152.236 186.922 153.043C186.922 153.842 187.09 154.554 187.428 155.177C187.765 155.8 188.231 156.292 188.825 156.651C189.419 157.003 190.097 157.179 190.86 157.179ZM204.383 159.016C203.445 159.016 202.612 158.814 201.886 158.411C201.168 158 200.596 157.417 200.17 156.662L201.193 155.342C201.582 155.995 202.051 156.501 202.601 156.86C203.151 157.219 203.742 157.399 204.372 157.399C204.783 157.399 205.153 157.318 205.483 157.157C205.821 156.996 206.088 156.765 206.286 156.464C206.484 156.156 206.583 155.793 206.583 155.375C206.583 154.972 206.481 154.656 206.275 154.429C206.077 154.194 205.78 153.989 205.384 153.813C204.996 153.637 204.508 153.435 203.921 153.208C203.452 153.017 202.997 152.801 202.557 152.559C202.117 152.317 201.754 152.013 201.468 151.646C201.19 151.272 201.05 150.799 201.05 150.227C201.05 149.611 201.215 149.065 201.545 148.588C201.883 148.111 202.345 147.737 202.931 147.466C203.518 147.195 204.185 147.059 204.933 147.059C205.542 147.059 206.132 147.18 206.704 147.422C207.276 147.664 207.819 148.012 208.332 148.467L207.474 149.765C206.712 148.958 205.868 148.555 204.944 148.555C204.387 148.555 203.936 148.698 203.591 148.984C203.247 149.263 203.074 149.626 203.074 150.073C203.074 150.418 203.199 150.707 203.448 150.942C203.698 151.169 204.017 151.367 204.405 151.536C204.794 151.705 205.197 151.87 205.615 152.031C206.246 152.266 206.796 152.508 207.265 152.757C207.742 153.006 208.112 153.329 208.376 153.725C208.64 154.114 208.772 154.638 208.772 155.298C208.772 156.068 208.589 156.732 208.222 157.289C207.863 157.846 207.353 158.275 206.693 158.576C206.033 158.869 205.263 159.016 204.383 159.016Z" fill="#043253"/>
<path d="M91.3704 388.141V369.991H96.5184C97.7211 369.991 98.7624 370.2 99.6424 370.618C100.522 371.036 101.201 371.637 101.677 372.422C102.161 373.199 102.403 374.134 102.403 375.227C102.403 376.18 102.216 377.027 101.842 377.768C101.468 378.508 100.933 379.113 100.236 379.583C99.5471 380.052 98.7221 380.36 97.7614 380.507L103.767 388.141H100.929L95.3084 380.738H93.6034V388.141H91.3704ZM93.6034 378.835H95.9134C96.7788 378.835 97.5231 378.692 98.1464 378.406C98.7698 378.12 99.2501 377.713 99.5874 377.185C99.9248 376.649 100.093 376.015 100.093 375.282C100.093 374.189 99.7231 373.335 98.9824 372.719C98.2491 372.103 97.2261 371.795 95.9134 371.795H93.6034V378.835ZM110.902 388.493C109.853 388.493 108.903 388.236 108.053 387.723C107.209 387.202 106.538 386.491 106.04 385.589C105.548 384.687 105.303 383.656 105.303 382.498C105.303 381.354 105.545 380.334 106.029 379.44C106.513 378.538 107.176 377.826 108.02 377.306C108.863 376.785 109.824 376.525 110.902 376.525C111.855 376.525 112.724 376.737 113.509 377.163C114.301 377.588 114.913 378.178 115.346 378.934V376.877H117.48V388.141H115.346V386.029C114.854 386.806 114.224 387.411 113.454 387.844C112.684 388.276 111.833 388.493 110.902 388.493ZM111.474 386.656C112.244 386.656 112.922 386.48 113.509 386.128C114.103 385.768 114.568 385.277 114.906 384.654C115.243 384.03 115.412 383.315 115.412 382.509C115.412 381.702 115.243 380.987 114.906 380.364C114.568 379.74 114.103 379.253 113.509 378.901C112.922 378.541 112.244 378.362 111.474 378.362C110.711 378.362 110.033 378.541 109.439 378.901C108.845 379.253 108.375 379.74 108.031 380.364C107.693 380.987 107.525 381.702 107.525 382.509C107.525 383.308 107.693 384.023 108.031 384.654C108.375 385.277 108.845 385.768 109.439 386.128C110.033 386.48 110.711 386.656 111.474 386.656ZM121.983 388.141V376.877H124.117V378.329C124.462 377.815 124.957 377.386 125.602 377.042C126.248 376.697 127.014 376.525 127.901 376.525C128.774 376.525 129.529 376.708 130.167 377.075C130.805 377.434 131.297 377.955 131.641 378.637C131.993 379.319 132.169 380.133 132.169 381.079V388.141H130.035V381.508C130.035 380.452 129.782 379.641 129.276 379.077C128.77 378.512 128.059 378.23 127.142 378.23C126.512 378.23 125.969 378.358 125.514 378.615C125.067 378.864 124.722 379.201 124.48 379.627C124.238 380.045 124.117 380.503 124.117 381.002V388.141H121.983ZM136.464 388.141V369.221H138.598V381.343L142.998 376.877H145.77L140.523 382.245L146.034 388.141H143.295L138.598 383.059V388.141H136.464ZM149.214 388.141V376.877H151.348V388.141H149.214ZM150.281 374.6C150.039 374.6 149.816 374.541 149.61 374.424C149.412 374.299 149.251 374.134 149.126 373.929C149.009 373.723 148.95 373.5 148.95 373.258C148.95 373.008 149.009 372.785 149.126 372.587C149.251 372.389 149.412 372.231 149.61 372.114C149.816 371.989 150.039 371.927 150.281 371.927C150.531 371.927 150.754 371.989 150.952 372.114C151.15 372.231 151.308 372.389 151.425 372.587C151.55 372.785 151.612 373.008 151.612 373.258C151.612 373.5 151.55 373.723 151.425 373.929C151.308 374.134 151.15 374.299 150.952 374.424C150.754 374.541 150.531 374.6 150.281 374.6ZM155.864 388.141V376.877H157.998V378.329C158.343 377.815 158.838 377.386 159.483 377.042C160.128 376.697 160.895 376.525 161.782 376.525C162.655 376.525 163.41 376.708 164.048 377.075C164.686 377.434 165.177 377.955 165.522 378.637C165.874 379.319 166.05 380.133 166.05 381.079V388.141H163.916V381.508C163.916 380.452 163.663 379.641 163.157 379.077C162.651 378.512 161.94 378.23 161.023 378.23C160.392 378.23 159.85 378.358 159.395 378.615C158.948 378.864 158.603 379.201 158.361 379.627C158.119 380.045 157.998 380.503 157.998 381.002V388.141H155.864ZM175.449 394.191C173.997 394.191 172.772 393.912 171.775 393.355C170.777 392.797 170.04 391.983 169.564 390.913L171.335 390.077C171.672 390.773 172.211 391.327 172.952 391.738C173.692 392.156 174.525 392.365 175.449 392.365C176.241 392.365 176.945 392.207 177.561 391.892C178.184 391.576 178.672 391.125 179.024 390.539C179.383 389.952 179.563 389.252 179.563 388.438V386.029C179.086 386.799 178.459 387.404 177.682 387.844C176.904 388.276 176.046 388.493 175.108 388.493C174.066 388.493 173.124 388.236 172.281 387.723C171.437 387.209 170.766 386.502 170.268 385.6C169.769 384.698 169.52 383.667 169.52 382.509C169.52 381.357 169.765 380.334 170.257 379.44C170.748 378.538 171.415 377.826 172.259 377.306C173.109 376.785 174.074 376.525 175.152 376.525C176.09 376.525 176.948 376.737 177.726 377.163C178.503 377.588 179.115 378.178 179.563 378.934V376.877H181.697V388.449C181.697 389.651 181.451 390.682 180.96 391.54C180.476 392.398 179.768 393.054 178.837 393.509C177.905 393.963 176.776 394.191 175.449 394.191ZM175.68 386.656C176.45 386.656 177.132 386.48 177.726 386.128C178.327 385.768 178.796 385.277 179.134 384.654C179.471 384.03 179.64 383.319 179.64 382.52C179.64 381.713 179.467 380.998 179.123 380.375C178.785 379.744 178.32 379.253 177.726 378.901C177.132 378.541 176.453 378.362 175.691 378.362C174.928 378.362 174.25 378.541 173.656 378.901C173.062 379.253 172.592 379.744 172.248 380.375C171.91 380.998 171.742 381.713 171.742 382.52C171.742 383.319 171.91 384.03 172.248 384.654C172.585 385.277 173.051 385.768 173.645 386.128C174.239 386.48 174.917 386.656 175.68 386.656Z" fill="#043253"/>
<path d="M493.904 302.821C492.54 302.821 491.267 302.582 490.087 302.106C488.913 301.622 487.883 300.954 486.996 300.104C486.116 299.246 485.43 298.245 484.939 297.101C484.447 295.957 484.202 294.725 484.202 293.405C484.202 292.085 484.447 290.853 484.939 289.709C485.437 288.565 486.127 287.567 487.007 286.717C487.887 285.859 488.913 285.191 490.087 284.715C491.26 284.231 492.529 283.989 493.893 283.989C495.022 283.989 496.085 284.154 497.083 284.484C498.087 284.806 498.964 285.25 499.712 285.815L498.7 287.696C498.098 287.212 497.394 286.841 496.588 286.585C495.781 286.321 494.93 286.189 494.036 286.189C492.958 286.189 491.968 286.372 491.066 286.739C490.164 287.105 489.379 287.619 488.712 288.279C488.052 288.931 487.538 289.698 487.172 290.578C486.812 291.45 486.633 292.393 486.633 293.405C486.633 294.417 486.812 295.363 487.172 296.243C487.538 297.115 488.052 297.882 488.712 298.542C489.379 299.194 490.164 299.704 491.066 300.071C491.968 300.437 492.958 300.621 494.036 300.621C494.93 300.621 495.781 300.492 496.588 300.236C497.394 299.972 498.098 299.598 498.7 299.114L499.712 300.995C498.978 301.545 498.113 301.988 497.116 302.326C496.118 302.656 495.048 302.821 493.904 302.821ZM502.791 302.469V283.538H504.925V292.657C505.27 292.143 505.765 291.714 506.41 291.37C507.055 291.025 507.822 290.853 508.709 290.853C509.582 290.853 510.337 291.036 510.975 291.403C511.613 291.762 512.104 292.283 512.449 292.965C512.801 293.647 512.977 294.461 512.977 295.407V302.469H510.843V295.836C510.843 294.78 510.59 293.969 510.084 293.405C509.578 292.833 508.867 292.547 507.95 292.547C507.319 292.547 506.777 292.675 506.322 292.932C505.875 293.188 505.53 293.529 505.288 293.955C505.046 294.373 504.925 294.831 504.925 295.33V302.469H502.791ZM522.046 302.821C520.997 302.821 520.047 302.564 519.197 302.051C518.353 301.53 517.682 300.819 517.184 299.917C516.692 299.015 516.447 297.984 516.447 296.826C516.447 295.682 516.689 294.662 517.173 293.768C517.657 292.866 518.32 292.154 519.164 291.634C520.007 291.113 520.968 290.853 522.046 290.853C522.999 290.853 523.868 291.065 524.653 291.491C525.445 291.916 526.057 292.506 526.49 293.262V291.205H528.624V302.469H526.49V300.357C525.998 301.134 525.368 301.739 524.598 302.172C523.828 302.604 522.977 302.821 522.046 302.821ZM522.618 300.984C523.388 300.984 524.066 300.808 524.653 300.456C525.247 300.096 525.712 299.605 526.05 298.982C526.387 298.358 526.556 297.643 526.556 296.837C526.556 296.03 526.387 295.315 526.05 294.692C525.712 294.068 525.247 293.581 524.653 293.229C524.066 292.869 523.388 292.69 522.618 292.69C521.855 292.69 521.177 292.869 520.583 293.229C519.989 293.581 519.519 294.068 519.175 294.692C518.837 295.315 518.669 296.03 518.669 296.837C518.669 297.636 518.837 298.351 519.175 298.982C519.519 299.605 519.989 300.096 520.583 300.456C521.177 300.808 521.855 300.984 522.618 300.984ZM536.101 302.821C535.177 302.821 534.458 302.516 533.945 301.908C533.431 301.292 533.175 300.43 533.175 299.323V292.822H531.921V291.205H533.175V286.992H535.309V291.205H538.015V292.822H535.309V299.191C535.309 299.748 535.419 300.177 535.639 300.478C535.859 300.778 536.174 300.929 536.585 300.929C536.995 300.929 537.362 300.808 537.685 300.566L538.224 302.271C537.938 302.439 537.604 302.571 537.223 302.667C536.849 302.769 536.475 302.821 536.101 302.821ZM548.138 302.821C547.207 302.821 546.352 302.604 545.575 302.172C544.798 301.732 544.167 301.127 543.683 300.357V302.469H541.549V283.549H543.683V293.262C544.138 292.506 544.75 291.916 545.52 291.491C546.297 291.065 547.155 290.853 548.094 290.853C549.172 290.853 550.136 291.113 550.987 291.634C551.838 292.154 552.505 292.866 552.989 293.768C553.48 294.662 553.726 295.685 553.726 296.837C553.726 297.995 553.477 299.026 552.978 299.928C552.487 300.83 551.819 301.537 550.976 302.051C550.133 302.564 549.187 302.821 548.138 302.821ZM547.566 300.984C548.336 300.984 549.014 300.808 549.601 300.456C550.195 300.096 550.661 299.605 550.998 298.982C551.335 298.358 551.504 297.647 551.504 296.848C551.504 296.041 551.332 295.326 550.987 294.703C550.65 294.072 550.184 293.581 549.59 293.229C549.003 292.869 548.329 292.69 547.566 292.69C546.803 292.69 546.121 292.869 545.52 293.229C544.926 293.581 544.457 294.072 544.112 294.703C543.775 295.326 543.606 296.041 543.606 296.848C543.606 297.647 543.775 298.358 544.112 298.982C544.449 299.605 544.915 300.096 545.509 300.456C546.11 300.808 546.796 300.984 547.566 300.984ZM562.849 302.821C561.654 302.821 560.576 302.568 559.615 302.062C558.662 301.556 557.903 300.852 557.338 299.95C556.781 299.048 556.502 298.01 556.502 296.837C556.502 295.656 556.781 294.618 557.338 293.724C557.903 292.822 558.662 292.118 559.615 291.612C560.576 291.106 561.654 290.853 562.849 290.853C564.045 290.853 565.119 291.106 566.072 291.612C567.033 292.118 567.792 292.822 568.349 293.724C568.914 294.618 569.196 295.656 569.196 296.837C569.196 298.01 568.914 299.048 568.349 299.95C567.792 300.852 567.033 301.556 566.072 302.062C565.119 302.568 564.045 302.821 562.849 302.821ZM562.86 300.962C563.645 300.962 564.349 300.786 564.972 300.434C565.596 300.082 566.087 299.594 566.446 298.971C566.806 298.347 566.985 297.636 566.985 296.837C566.985 296.03 566.806 295.319 566.446 294.703C566.087 294.079 565.596 293.592 564.972 293.24C564.349 292.888 563.645 292.712 562.86 292.712C562.068 292.712 561.361 292.888 560.737 293.24C560.114 293.592 559.623 294.079 559.263 294.703C558.904 295.319 558.724 296.03 558.724 296.837C558.724 297.636 558.904 298.347 559.263 298.971C559.623 299.594 560.114 300.082 560.737 300.434C561.361 300.786 562.068 300.962 562.86 300.962ZM575.825 302.821C574.901 302.821 574.183 302.516 573.669 301.908C573.156 301.292 572.899 300.43 572.899 299.323V292.822H571.645V291.205H572.899V286.992H575.033V291.205H577.739V292.822H575.033V299.191C575.033 299.748 575.143 300.177 575.363 300.478C575.583 300.778 575.899 300.929 576.309 300.929C576.72 300.929 577.087 300.808 577.409 300.566L577.948 302.271C577.662 302.439 577.329 302.571 576.947 302.667C576.573 302.769 576.199 302.821 575.825 302.821Z" fill="#043253"/>
<path d="M541.556 173.84L548.739 155.69H550.818L558.001 173.84H555.592L553.579 168.549H545.978L543.954 173.84H541.556ZM546.737 166.58H552.82L549.773 158.671L546.737 166.58ZM564.815 173.84L559.216 162.576H561.724L565.53 170.903L569.336 162.576H571.844L566.234 173.84H564.815ZM579.157 174.192C578.109 174.192 577.159 173.935 576.308 173.422C575.465 172.901 574.794 172.19 574.295 171.288C573.804 170.386 573.558 169.356 573.558 168.197C573.558 167.053 573.8 166.034 574.284 165.139C574.768 164.237 575.432 163.526 576.275 163.005C577.119 162.484 578.079 162.224 579.157 162.224C580.111 162.224 580.98 162.437 581.764 162.862C582.556 163.287 583.169 163.878 583.601 164.633V162.576H585.735V173.84H583.601V171.728C583.11 172.505 582.479 173.11 581.709 173.543C580.939 173.976 580.089 174.192 579.157 174.192ZM579.729 172.355C580.499 172.355 581.178 172.179 581.764 171.827C582.358 171.468 582.824 170.976 583.161 170.353C583.499 169.73 583.667 169.015 583.667 168.208C583.667 167.401 583.499 166.686 583.161 166.063C582.824 165.44 582.358 164.952 581.764 164.6C581.178 164.241 580.499 164.061 579.729 164.061C578.967 164.061 578.288 164.241 577.694 164.6C577.1 164.952 576.631 165.44 576.286 166.063C575.949 166.686 575.78 167.401 575.78 168.208C575.78 169.007 575.949 169.722 576.286 170.353C576.631 170.976 577.1 171.468 577.694 171.827C578.288 172.179 578.967 172.355 579.729 172.355ZM590.239 173.84V154.92H592.373V173.84H590.239ZM596.867 173.84V162.576H599.001V173.84H596.867ZM597.934 160.299C597.692 160.299 597.468 160.24 597.263 160.123C597.065 159.998 596.903 159.833 596.779 159.628C596.661 159.423 596.603 159.199 596.603 158.957C596.603 158.708 596.661 158.484 596.779 158.286C596.903 158.088 597.065 157.93 597.263 157.813C597.468 157.688 597.692 157.626 597.934 157.626C598.183 157.626 598.407 157.688 598.605 157.813C598.803 157.93 598.96 158.088 599.078 158.286C599.202 158.484 599.265 158.708 599.265 158.957C599.265 159.199 599.202 159.423 599.078 159.628C598.96 159.833 598.803 159.998 598.605 160.123C598.407 160.24 598.183 160.299 597.934 160.299ZM608.29 174.192C607.242 174.192 606.292 173.935 605.441 173.422C604.598 172.901 603.927 172.19 603.428 171.288C602.937 170.386 602.691 169.356 602.691 168.197C602.691 167.053 602.933 166.034 603.417 165.139C603.901 164.237 604.565 163.526 605.408 163.005C606.252 162.484 607.212 162.224 608.29 162.224C609.244 162.224 610.113 162.437 610.897 162.862C611.689 163.287 612.302 163.878 612.734 164.633V162.576H614.868V173.84H612.734V171.728C612.243 172.505 611.612 173.11 610.842 173.543C610.072 173.976 609.222 174.192 608.29 174.192ZM608.862 172.355C609.632 172.355 610.311 172.179 610.897 171.827C611.491 171.468 611.957 170.976 612.294 170.353C612.632 169.73 612.8 169.015 612.8 168.208C612.8 167.401 612.632 166.686 612.294 166.063C611.957 165.44 611.491 164.952 610.897 164.6C610.311 164.241 609.632 164.061 608.862 164.061C608.1 164.061 607.421 164.241 606.827 164.6C606.233 164.952 605.764 165.44 605.419 166.063C605.082 166.686 604.913 167.401 604.913 168.208C604.913 169.007 605.082 169.722 605.419 170.353C605.764 170.976 606.233 171.468 606.827 171.827C607.421 172.179 608.1 172.355 608.862 172.355ZM624.619 174.192C623.768 174.192 622.969 174.042 622.221 173.741C621.48 173.44 620.827 173.019 620.263 172.476C619.698 171.933 619.254 171.299 618.932 170.573C618.616 169.847 618.459 169.059 618.459 168.208C618.459 167.372 618.613 166.595 618.921 165.876C619.229 165.15 619.661 164.516 620.219 163.973C620.776 163.423 621.429 162.994 622.177 162.686C622.925 162.378 623.735 162.224 624.608 162.224C625.348 162.224 626.052 162.334 626.72 162.554C627.387 162.767 627.952 163.056 628.414 163.423L627.611 164.864C626.87 164.292 625.964 164.006 624.894 164.006C624.043 164.006 623.299 164.197 622.661 164.578C622.023 164.952 621.528 165.458 621.176 166.096C620.831 166.734 620.659 167.438 620.659 168.208C620.659 169 620.838 169.715 621.198 170.353C621.557 170.984 622.056 171.486 622.694 171.86C623.339 172.227 624.08 172.41 624.916 172.41C625.436 172.41 625.928 172.337 626.39 172.19C626.852 172.036 627.255 171.823 627.6 171.552L628.414 172.993C627.944 173.352 627.38 173.642 626.72 173.862C626.06 174.082 625.359 174.192 624.619 174.192ZM624.223 179.857C623.614 179.857 623.057 179.718 622.551 179.439C622.052 179.16 621.627 178.764 621.275 178.251L622.199 177.602C622.668 178.335 623.332 178.702 624.19 178.702C624.652 178.702 625.022 178.585 625.301 178.35C625.587 178.123 625.73 177.822 625.73 177.448C625.73 177.089 625.59 176.799 625.312 176.579C625.04 176.359 624.685 176.249 624.245 176.249C624.01 176.249 623.761 176.278 623.497 176.337C623.24 176.403 623.031 176.484 622.87 176.579L622.749 176.491L623.651 173.697H624.696L624.124 175.468C624.366 175.439 624.578 175.431 624.762 175.446C624.952 175.468 625.128 175.508 625.29 175.567C625.796 175.64 626.203 175.849 626.511 176.194C626.826 176.539 626.984 176.968 626.984 177.481C626.984 178.17 626.723 178.739 626.203 179.186C625.689 179.633 625.029 179.857 624.223 179.857ZM636.456 174.192C635.408 174.192 634.458 173.935 633.607 173.422C632.764 172.901 632.093 172.19 631.594 171.288C631.103 170.386 630.857 169.356 630.857 168.197C630.857 167.053 631.099 166.034 631.583 165.139C632.067 164.237 632.731 163.526 633.574 163.005C634.418 162.484 635.378 162.224 636.456 162.224C637.41 162.224 638.279 162.437 639.063 162.862C639.855 163.287 640.468 163.878 640.9 164.633V162.576H643.034V173.84H640.9V171.728C640.409 172.505 639.778 173.11 639.008 173.543C638.238 173.976 637.388 174.192 636.456 174.192ZM637.028 172.355C637.798 172.355 638.477 172.179 639.063 171.827C639.657 171.468 640.123 170.976 640.46 170.353C640.798 169.73 640.966 169.015 640.966 168.208C640.966 167.401 640.798 166.686 640.46 166.063C640.123 165.44 639.657 164.952 639.063 164.6C638.477 164.241 637.798 164.061 637.028 164.061C636.266 164.061 635.587 164.241 634.993 164.6C634.399 164.952 633.93 165.44 633.585 166.063C633.248 166.686 633.079 167.401 633.079 168.208C633.079 169.007 633.248 169.722 633.585 170.353C633.93 170.976 634.399 171.468 634.993 171.827C635.587 172.179 636.266 172.355 637.028 172.355ZM639.998 159.87C639.551 159.87 639.144 159.782 638.777 159.606C638.411 159.423 638.059 159.214 637.721 158.979C637.384 158.744 637.039 158.539 636.687 158.363C636.343 158.18 635.961 158.088 635.543 158.088C634.986 158.088 634.52 158.26 634.146 158.605C633.78 158.95 633.494 159.338 633.288 159.771L632.166 158.781C632.518 158.128 632.984 157.578 633.563 157.131C634.143 156.676 634.792 156.449 635.51 156.449C635.994 156.449 636.434 156.541 636.83 156.724C637.234 156.9 637.611 157.105 637.963 157.34C638.323 157.575 638.675 157.784 639.019 157.967C639.364 158.143 639.716 158.231 640.075 158.231C640.53 158.231 640.952 158.073 641.34 157.758C641.736 157.443 642.048 157.039 642.275 156.548L643.386 157.538C643.137 158.007 642.825 158.418 642.451 158.77C642.077 159.122 641.678 159.393 641.252 159.584C640.827 159.775 640.409 159.87 639.998 159.87ZM652.983 174.192C651.787 174.192 650.709 173.939 649.749 173.433C648.795 172.927 648.036 172.223 647.472 171.321C646.914 170.419 646.636 169.381 646.636 168.208C646.636 167.027 646.914 165.99 647.472 165.095C648.036 164.193 648.795 163.489 649.749 162.983C650.709 162.477 651.787 162.224 652.983 162.224C654.178 162.224 655.252 162.477 656.206 162.983C657.166 163.489 657.925 164.193 658.483 165.095C659.047 165.99 659.33 167.027 659.33 168.208C659.33 169.381 659.047 170.419 658.483 171.321C657.925 172.223 657.166 172.927 656.206 173.433C655.252 173.939 654.178 174.192 652.983 174.192ZM652.994 172.333C653.778 172.333 654.482 172.157 655.106 171.805C655.729 171.453 656.22 170.965 656.58 170.342C656.939 169.719 657.119 169.007 657.119 168.208C657.119 167.401 656.939 166.69 656.58 166.074C656.22 165.451 655.729 164.963 655.106 164.611C654.482 164.259 653.778 164.083 652.994 164.083C652.202 164.083 651.494 164.259 650.871 164.611C650.247 164.963 649.756 165.451 649.397 166.074C649.037 166.69 648.858 167.401 648.858 168.208C648.858 169.007 649.037 169.719 649.397 170.342C649.756 170.965 650.247 171.453 650.871 171.805C651.494 172.157 652.202 172.333 652.994 172.333Z" fill="#043253"/>
<path d="M514.71 48.8012C513.346 48.8012 512.074 48.5629 510.893 48.0862C509.72 47.6022 508.689 46.9349 507.802 46.0842C506.922 45.2262 506.236 44.2252 505.745 43.0812C505.254 41.9372 505.008 40.7052 505.008 39.3852C505.008 38.0652 505.254 36.8332 505.745 35.6892C506.244 34.5452 506.933 33.5479 507.813 32.6972C508.693 31.8392 509.72 31.1719 510.893 30.6952C512.066 30.2112 513.335 29.9692 514.699 29.9692C515.828 29.9692 516.892 30.1342 517.889 30.4642C518.894 30.7869 519.77 31.2306 520.518 31.7952L519.506 33.6762C518.905 33.1922 518.201 32.8219 517.394 32.5652C516.587 32.3012 515.737 32.1692 514.842 32.1692C513.764 32.1692 512.774 32.3526 511.872 32.7192C510.97 33.0859 510.185 33.5992 509.518 34.2592C508.858 34.9119 508.345 35.6782 507.978 36.5582C507.619 37.4309 507.439 38.3732 507.439 39.3852C507.439 40.3972 507.619 41.3432 507.978 42.2232C508.345 43.0959 508.858 43.8622 509.518 44.5222C510.185 45.1749 510.97 45.6846 511.872 46.0512C512.774 46.4179 513.764 46.6012 514.842 46.6012C515.737 46.6012 516.587 46.4729 517.394 46.2162C518.201 45.9522 518.905 45.5782 519.506 45.0942L520.518 46.9752C519.785 47.5252 518.919 47.9689 517.922 48.3062C516.925 48.6362 515.854 48.8012 514.71 48.8012ZM528.437 48.8012C526.626 48.8012 525.328 48.4126 524.543 47.6352C523.759 46.8506 523.366 45.5489 523.366 43.7302V37.1852H525.5V43.2902C525.5 44.6396 525.724 45.6002 526.171 46.1722C526.619 46.7442 527.374 47.0302 528.437 47.0302C529.508 47.0302 530.267 46.7442 530.714 46.1722C531.162 45.6002 531.385 44.6396 531.385 43.2902V37.1852H533.519V43.7302C533.519 45.5489 533.127 46.8506 532.342 47.6352C531.558 48.4126 530.256 48.8012 528.437 48.8012ZM537.798 48.4492V37.1852H539.932V38.8352C540.306 38.1826 540.783 37.6876 541.362 37.3502C541.942 37.0056 542.598 36.8332 543.331 36.8332C543.683 36.8332 544.039 36.8772 544.398 36.9652C544.765 37.0459 545.08 37.1559 545.344 37.2952L544.464 39.0992C544.237 38.9746 543.973 38.8756 543.672 38.8022C543.372 38.7289 543.089 38.6922 542.825 38.6922C542.334 38.6922 541.865 38.8206 541.417 39.0772C540.977 39.3266 540.618 39.6529 540.339 40.0562C540.068 40.4596 539.932 40.8922 539.932 41.3542V48.4492H537.798ZM550.813 48.8012C549.875 48.8012 549.042 48.5996 548.316 48.1962C547.598 47.7856 547.026 47.2026 546.6 46.4472L547.623 45.1272C548.012 45.7799 548.481 46.2859 549.031 46.6452C549.581 47.0046 550.172 47.1842 550.802 47.1842C551.213 47.1842 551.583 47.1036 551.913 46.9422C552.251 46.7809 552.518 46.5499 552.716 46.2492C552.914 45.9412 553.013 45.5782 553.013 45.1602C553.013 44.7569 552.911 44.4416 552.705 44.2142C552.507 43.9796 552.21 43.7742 551.814 43.5982C551.426 43.4222 550.938 43.2206 550.351 42.9932C549.882 42.8026 549.427 42.5862 548.987 42.3442C548.547 42.1022 548.184 41.7979 547.898 41.4312C547.62 41.0572 547.48 40.5842 547.48 40.0122C547.48 39.3962 547.645 38.8499 547.975 38.3732C548.313 37.8966 548.775 37.5226 549.361 37.2512C549.948 36.9799 550.615 36.8442 551.363 36.8442C551.972 36.8442 552.562 36.9652 553.134 37.2072C553.706 37.4492 554.249 37.7976 554.762 38.2522L553.904 39.5502C553.142 38.7436 552.298 38.3402 551.374 38.3402C550.817 38.3402 550.366 38.4832 550.021 38.7692C549.677 39.0479 549.504 39.4109 549.504 39.8582C549.504 40.2029 549.629 40.4926 549.878 40.7272C550.128 40.9546 550.447 41.1526 550.835 41.3212C551.224 41.4899 551.627 41.6549 552.045 41.8162C552.676 42.0509 553.226 42.2929 553.695 42.5422C554.172 42.7916 554.542 43.1142 554.806 43.5102C555.07 43.8989 555.202 44.4232 555.202 45.0832C555.202 45.8532 555.019 46.5169 554.652 47.0742C554.293 47.6316 553.783 48.0606 553.123 48.3612C552.463 48.6546 551.693 48.8012 550.813 48.8012ZM564.277 48.8012C563.081 48.8012 562.003 48.5482 561.043 48.0422C560.089 47.5362 559.33 46.8322 558.766 45.9302C558.208 45.0282 557.93 43.9906 557.93 42.8172C557.93 41.6366 558.208 40.5989 558.766 39.7042C559.33 38.8022 560.089 38.0982 561.043 37.5922C562.003 37.0862 563.081 36.8332 564.277 36.8332C565.472 36.8332 566.546 37.0862 567.5 37.5922C568.46 38.0982 569.219 38.8022 569.777 39.7042C570.341 40.5989 570.624 41.6366 570.624 42.8172C570.624 43.9906 570.341 45.0282 569.777 45.9302C569.219 46.8322 568.46 47.5362 567.5 48.0422C566.546 48.5482 565.472 48.8012 564.277 48.8012ZM564.288 46.9422C565.072 46.9422 565.776 46.7662 566.4 46.4142C567.023 46.0622 567.514 45.5746 567.874 44.9512C568.233 44.3279 568.413 43.6166 568.413 42.8172C568.413 42.0106 568.233 41.2992 567.874 40.6832C567.514 40.0599 567.023 39.5722 566.4 39.2202C565.776 38.8682 565.072 38.6922 564.288 38.6922C563.496 38.6922 562.788 38.8682 562.165 39.2202C561.541 39.5722 561.05 40.0599 560.691 40.6832C560.331 41.2992 560.152 42.0106 560.152 42.8172C560.152 43.6166 560.331 44.3279 560.691 44.9512C561.05 45.5746 561.541 46.0622 562.165 46.4142C562.788 46.7662 563.496 46.9422 564.288 46.9422ZM577.153 48.8012C576.214 48.8012 575.382 48.5996 574.656 48.1962C573.937 47.7856 573.365 47.2026 572.94 46.4472L573.963 45.1272C574.352 45.7799 574.821 46.2859 575.371 46.6452C575.921 47.0046 576.511 47.1842 577.142 47.1842C577.553 47.1842 577.923 47.1036 578.253 46.9422C578.59 46.7809 578.858 46.5499 579.056 46.2492C579.254 45.9412 579.353 45.5782 579.353 45.1602C579.353 44.7569 579.25 44.4416 579.045 44.2142C578.847 43.9796 578.55 43.7742 578.154 43.5982C577.765 43.4222 577.278 43.2206 576.691 42.9932C576.222 42.8026 575.767 42.5862 575.327 42.3442C574.887 42.1022 574.524 41.7979 574.238 41.4312C573.959 41.0572 573.82 40.5842 573.82 40.0122C573.82 39.3962 573.985 38.8499 574.315 38.3732C574.652 37.8966 575.114 37.5226 575.701 37.2512C576.288 36.9799 576.955 36.8442 577.703 36.8442C578.312 36.8442 578.902 36.9652 579.474 37.2072C580.046 37.4492 580.589 37.7976 581.102 38.2522L580.244 39.5502C579.481 38.7436 578.638 38.3402 577.714 38.3402C577.157 38.3402 576.706 38.4832 576.361 38.7692C576.016 39.0479 575.844 39.4109 575.844 39.8582C575.844 40.2029 575.969 40.4926 576.218 40.7272C576.467 40.9546 576.786 41.1526 577.175 41.3212C577.564 41.4899 577.967 41.6549 578.385 41.8162C579.016 42.0509 579.566 42.2929 580.035 42.5422C580.512 42.7916 580.882 43.1142 581.146 43.5102C581.41 43.8989 581.542 44.4232 581.542 45.0832C581.542 45.8532 581.359 46.5169 580.992 47.0742C580.633 47.6316 580.123 48.0606 579.463 48.3612C578.803 48.6546 578.033 48.8012 577.153 48.8012Z" fill="#043253"/>
</g>
<defs>
<filter id="filter0_d_1364_831" x="10.9097" y="10.7109" width="693.417" height="409.961" filterUnits="userSpaceOnUse" color-interpolation-filters="sRGB">
<feFlood flood-opacity="0" result="BackgroundImageFix"/>
<feColorMatrix in="SourceAlpha" type="matrix" values="0 0 0 0 0 0 0 0 0 0 0 0 0 0 0 0 0 0 127 0" result="hardAlpha"/>
<feOffset dx="4" dy="4"/>
<feGaussianBlur stdDeviation="4"/>
<feComposite in2="hardAlpha" operator="out"/>
<feColorMatrix type="matrix" values="0 0 0 0 0.0941176 0 0 0 0 0.643137 0 0 0 0 0.882353 0 0 0 0.6 0"/>
<feBlend mode="normal" in2="BackgroundImageFix" result="effect1_dropShadow_1364_831"/>
<feBlend mode="normal" in="SourceGraphic" in2="effect1_dropShadow_1364_831" result="shape"/>
</filter>
<filter id="filter1_d_1364_831" x="26.6152" y="110.574" width="232.649" height="85.2695" filterUnits="userSpaceOnUse" color-interpolation-filters="sRGB">
<feFlood flood-opacity="0" result="BackgroundImageFix"/>
<feColorMatrix in="SourceAlpha" type="matrix" values="0 0 0 0 0 0 0 0 0 0 0 0 0 0 0 0 0 0 127 0" result="hardAlpha"/>
<feOffset dx="1" dy="1"/>
<feGaussianBlur stdDeviation="7.5"/>
<feComposite in2="hardAlpha" operator="out"/>
<feColorMatrix type="matrix" values="0 0 0 0 0.0156863 0 0 0 0 0.196078 0 0 0 0 0.32549 0 0 0 0.5 0"/>
<feBlend mode="normal" in2="BackgroundImageFix" result="effect1_dropShadow_1364_831"/>
<feBlend mode="normal" in="SourceGraphic" in2="effect1_dropShadow_1364_831" result="shape"/>
</filter>
<filter id="filter2_d_1364_831" x="418.35" y="253.73" width="232.649" height="85.2695" filterUnits="userSpaceOnUse" color-interpolation-filters="sRGB">
<feFlood flood-opacity="0" result="BackgroundImageFix"/>
<feColorMatrix in="SourceAlpha" type="matrix" values="0 0 0 0 0 0 0 0 0 0 0 0 0 0 0 0 0 0 127 0" result="hardAlpha"/>
<feOffset/>
<feGaussianBlur stdDeviation="7.5"/>
<feComposite in2="hardAlpha" operator="out"/>
<feColorMatrix type="matrix" values="0 0 0 0 0.0156863 0 0 0 0 0.196078 0 0 0 0 0.32549 0 0 0 0.5 0"/>
<feBlend mode="normal" in2="BackgroundImageFix" result="effect1_dropShadow_1364_831"/>
<feBlend mode="normal" in="SourceGraphic" in2="effect1_dropShadow_1364_831" result="shape"/>
</filter>
<filter id="filter3_d_1364_831" x="33.9456" y="338.402" width="209.621" height="85.2695" filterUnits="userSpaceOnUse" color-interpolation-filters="sRGB">
<feFlood flood-opacity="0" result="BackgroundImageFix"/>
<feColorMatrix in="SourceAlpha" type="matrix" values="0 0 0 0 0 0 0 0 0 0 0 0 0 0 0 0 0 0 127 0" result="hardAlpha"/>
<feOffset/>
<feGaussianBlur stdDeviation="7.5"/>
<feComposite in2="hardAlpha" operator="out"/>
<feColorMatrix type="matrix" values="0 0 0 0 0.0156863 0 0 0 0 0.196078 0 0 0 0 0.32549 0 0 0 0.5 0"/>
<feBlend mode="normal" in2="BackgroundImageFix" result="effect1_dropShadow_1364_831"/>
<feBlend mode="normal" in="SourceGraphic" in2="effect1_dropShadow_1364_831" result="shape"/>
</filter>
<filter id="filter4_d_1364_831" x="440.538" y="0.710938" width="209.621" height="85.2695" filterUnits="userSpaceOnUse" color-interpolation-filters="sRGB">
<feFlood flood-opacity="0" result="BackgroundImageFix"/>
<feColorMatrix in="SourceAlpha" type="matrix" values="0 0 0 0 0 0 0 0 0 0 0 0 0 0 0 0 0 0 127 0" result="hardAlpha"/>
<feOffset dy="1"/>
<feGaussianBlur stdDeviation="7.5"/>
<feComposite in2="hardAlpha" operator="out"/>
<feColorMatrix type="matrix" values="0 0 0 0 0.0156863 0 0 0 0 0.196078 0 0 0 0 0.32549 0 0 0 0.5 0"/>
<feBlend mode="normal" in2="BackgroundImageFix" result="effect1_dropShadow_1364_831"/>
<feBlend mode="normal" in="SourceGraphic" in2="effect1_dropShadow_1364_831" result="shape"/>
</filter>
<filter id="filter5_d_1364_831" x="492.18" y="131.238" width="215.147" height="76.0547" filterUnits="userSpaceOnUse" color-interpolation-filters="sRGB">
<feFlood flood-opacity="0" result="BackgroundImageFix"/>
<feColorMatrix in="SourceAlpha" type="matrix" values="0 0 0 0 0 0 0 0 0 0 0 0 0 0 0 0 0 0 127 0" result="hardAlpha"/>
<feOffset dy="1"/>
<feGaussianBlur stdDeviation="7.5"/>
<feComposite in2="hardAlpha" operator="out"/>
<feColorMatrix type="matrix" values="0 0 0 0 0.0156863 0 0 0 0 0.196078 0 0 0 0 0.32549 0 0 0 0.5 0"/>
<feBlend mode="normal" in2="BackgroundImageFix" result="effect1_dropShadow_1364_831"/>
<feBlend mode="normal" in="SourceGraphic" in2="effect1_dropShadow_1364_831" result="shape"/>
</filter>
<filter id="filter6_d_1364_831" x="0.909668" y="219.27" width="195.804" height="76.0547" filterUnits="userSpaceOnUse" color-interpolation-filters="sRGB">
<feFlood flood-opacity="0" result="BackgroundImageFix"/>
<feColorMatrix in="SourceAlpha" type="matrix" values="0 0 0 0 0 0 0 0 0 0 0 0 0 0 0 0 0 0 127 0" result="hardAlpha"/>
<feOffset dx="1" dy="1"/>
<feGaussianBlur stdDeviation="7.5"/>
<feComposite in2="hardAlpha" operator="out"/>
<feColorMatrix type="matrix" values="0 0 0 0 0.0156863 0 0 0 0 0.196078 0 0 0 0 0.32549 0 0 0 0.5 0"/>
<feBlend mode="normal" in2="BackgroundImageFix" result="effect1_dropShadow_1364_831"/>
<feBlend mode="normal" in="SourceGraphic" in2="effect1_dropShadow_1364_831" result="shape"/>
</filter>
</defs>
</svg>
