<svg width="103" height="30" viewBox="0 0 103 30" fill="none" xmlns="http://www.w3.org/2000/svg">
<path d="M0.292893 14.2929C-0.0976311 14.6834 -0.0976311 15.3166 0.292893 15.7071L6.65685 22.0711C7.04738 22.4616 7.68054 22.4616 8.07107 22.0711C8.46159 21.6805 8.46159 21.0474 8.07107 20.6569L2.41421 15L8.07107 9.34315C8.46159 8.95262 8.46159 8.31946 8.07107 7.92893C7.68054 7.53841 7.04738 7.53841 6.65685 7.92893L0.292893 14.2929ZM1 15V16H31V15V14H1V15Z" fill="black"/>
<path d="M54.9663 8.1L49.7463 22H47.1063L41.8663 8.1H44.3063L48.4263 19.66L52.5663 8.1H54.9663ZM61.653 22.18C60.613 22.18 59.673 21.9467 58.833 21.48C57.993 21 57.333 20.3333 56.853 19.48C56.373 18.6133 56.133 17.6133 56.133 16.48C56.133 15.36 56.3797 14.3667 56.873 13.5C57.3664 12.6333 58.0397 11.9667 58.893 11.5C59.7464 11.0333 60.6997 10.8 61.753 10.8C62.8064 10.8 63.7597 11.0333 64.613 11.5C65.4664 11.9667 66.1397 12.6333 66.633 13.5C67.1264 14.3667 67.373 15.36 67.373 16.48C67.373 17.6 67.1197 18.5933 66.613 19.46C66.1064 20.3267 65.413 21 64.533 21.48C63.6664 21.9467 62.7064 22.18 61.653 22.18ZM61.653 20.2C62.2397 20.2 62.7864 20.06 63.293 19.78C63.813 19.5 64.233 19.08 64.553 18.52C64.873 17.96 65.033 17.28 65.033 16.48C65.033 15.68 64.8797 15.0067 64.573 14.46C64.2664 13.9 63.8597 13.48 63.353 13.2C62.8464 12.92 62.2997 12.78 61.713 12.78C61.1264 12.78 60.5797 12.92 60.073 13.2C59.5797 13.48 59.1864 13.9 58.893 14.46C58.5997 15.0067 58.453 15.68 58.453 16.48C58.453 17.6667 58.753 18.5867 59.353 19.24C59.9664 19.88 60.733 20.2 61.653 20.2ZM71.907 7.2V22H69.627V7.2H71.907ZM77.5604 12.84V18.94C77.5604 19.3533 77.6537 19.6533 77.8404 19.84C78.0404 20.0133 78.3737 20.1 78.8404 20.1H80.2404V22H78.4404C77.4137 22 76.6271 21.76 76.0804 21.28C75.5337 20.8 75.2604 20.02 75.2604 18.94V12.84H73.9604V10.98H75.2604V8.24H77.5604V10.98H80.2404V12.84H77.5604ZM81.5818 16.44C81.5818 15.3333 81.8085 14.3533 82.2618 13.5C82.7285 12.6467 83.3551 11.9867 84.1418 11.52C84.9418 11.04 85.8218 10.8 86.7818 10.8C87.6485 10.8 88.4018 10.9733 89.0418 11.32C89.6951 11.6533 90.2151 12.0733 90.6018 12.58V10.98H92.9018V22H90.6018V20.36C90.2151 20.88 89.6885 21.3133 89.0218 21.66C88.3551 22.0067 87.5951 22.18 86.7418 22.18C85.7951 22.18 84.9285 21.94 84.1418 21.46C83.3551 20.9667 82.7285 20.2867 82.2618 19.42C81.8085 18.54 81.5818 17.5467 81.5818 16.44ZM90.6018 16.48C90.6018 15.72 90.4418 15.06 90.1218 14.5C89.8151 13.94 89.4085 13.5133 88.9018 13.22C88.3951 12.9267 87.8485 12.78 87.2618 12.78C86.6751 12.78 86.1285 12.9267 85.6218 13.22C85.1151 13.5 84.7018 13.92 84.3818 14.48C84.0751 15.0267 83.9218 15.68 83.9218 16.44C83.9218 17.2 84.0751 17.8667 84.3818 18.44C84.7018 19.0133 85.1151 19.4533 85.6218 19.76C86.1418 20.0533 86.6885 20.2 87.2618 20.2C87.8485 20.2 88.3951 20.0533 88.9018 19.76C89.4085 19.4667 89.8151 19.04 90.1218 18.48C90.4418 17.9067 90.6018 17.24 90.6018 16.48ZM98.1765 12.58C98.5098 12.02 98.9498 11.5867 99.4965 11.28C100.056 10.96 100.716 10.8 101.476 10.8V13.16H100.896C100.003 13.16 99.3232 13.3867 98.8565 13.84C98.4032 14.2933 98.1765 15.08 98.1765 16.2V22H95.8965V10.98H98.1765V12.58Z" fill="black"/>
</svg>
