<svg width="252" height="316" viewBox="0 0 252 316" fill="none" xmlns="http://www.w3.org/2000/svg">
<path d="M133.352 134.931C126.905 146.742 122.916 153.213 121.727 154.972C120.805 154.24 119.918 145.162 119.59 140.714C120.015 131.802 116.655 129.715 114.922 129.786C104.736 130.465 96.5313 145.56 93.702 153.022C85.8931 172.12 101.2 183.756 109.829 187.186C130.37 194.231 140.81 184.251 143.463 178.38C150.847 158.518 145.077 142.802 141.269 137.427C138.53 132.406 134.85 133.671 133.352 134.931Z" fill="#9BDFFC" stroke="#9BDFFC" stroke-width="4"/>
<path d="M54.0002 179.384C60.4476 191.195 64.4368 197.666 65.6255 199.425C66.5475 198.693 67.4341 189.615 67.7621 185.168C67.3377 176.255 70.6975 174.169 72.4305 174.24C82.616 174.919 90.8211 190.013 93.6504 197.475C101.459 216.573 86.1527 228.209 77.5233 231.64C56.9824 238.685 46.5422 228.704 43.8897 222.833C36.5052 202.971 42.2755 187.256 46.0837 181.88C48.8224 176.859 52.5025 178.124 54.0002 179.384Z" fill="#9BDFFC" stroke="#9BDFFC" stroke-width="4"/>
<path d="M27.7023 214.517C-20.2065 234.143 1.54876 319.606 78.2844 313.817" stroke="url(#paint0_linear_0_33)" stroke-width="3" stroke-dasharray="6 6"/>
<path d="M189.174 1.5408C243.685 26.9616 306.15 97.2337 158.082 156.731" stroke="#9BDFFC" stroke-width="3" stroke-dasharray="6 6"/>
<defs>
<linearGradient id="paint0_linear_0_33" x1="16.6107" y1="208.075" x2="43.9838" y2="281.089" gradientUnits="userSpaceOnUse">
<stop stop-color="#9BDFFC"/>
<stop offset="1" stop-color="white" stop-opacity="0"/>
</linearGradient>
</defs>
</svg>
