<svg width="84" height="81" viewBox="0 0 84 81" fill="none" xmlns="http://www.w3.org/2000/svg">
<path d="M55.268 80.8695H15.0589L16.3895 72.3799C17.0536 71.8818 16.8876 67.2467 16.7215 64.9914L16.3895 62.2933C15.825 61.1975 18.9768 57.5751 20.6234 55.901L23.4044 50.0898L22.0347 51.252L22.2422 47.5577L23.1139 44.4446L21.3705 47.9313V52.9123L15.5593 61.048V63.6631L12.5707 65.531H10.1217C7.9964 65.5974 7.21605 64.092 7.09154 63.331C6.49382 64.7559 7.97706 65.7234 8.7934 66.0291C6.76779 67.5234 6.5381 68.8102 6.67645 69.2667L3.68783 69.0177L3.35576 69.5988C6.17835 68.9015 6.74563 70.6919 6.67645 71.6742L13.982 72.712H0.284103L4.64251 62.2933C4.64251 59.039 6.99467 58.3085 8.17075 58.35L11.3254 50.0898L10.1217 51.252C6.76775 51.6837 4.35194 49.6885 3.56328 48.637C2.91496 45.117 3.83341 42.7651 4.37367 42.0292L9.4337 37.2444C9.95876 35.8894 9.65247 35.2119 9.4337 35.0425C9.39983 36.9289 8.98204 36.9012 8.77738 36.6516C6.82958 34.8223 7.0907 32.5019 7.46473 31.5704C7.48167 32.2479 8.5614 32.5955 9.09915 32.6846C7.55131 32.0654 8.45422 29.5098 9.09915 28.3094C11.5757 32.2589 12.1303 34.0659 12.0981 34.4757C12.7172 35.8312 8.87345 39.8945 6.87417 41.7567C3.54633 44.1519 5.48757 47.1851 6.87417 48.4023C12.1368 49.3677 17.9025 42.3781 20.1275 38.7627C25.3128 29.3557 29.4844 24.583 30.922 23.3725C33.7814 21.1013 36.551 20.382 37.5784 20.3062C35.4027 22.0674 34.9452 26.3755 34.9883 28.3094C34.8019 30.5679 38.7439 33.9988 40.7382 35.4319C39.7851 34.686 38.01 32.4621 37.2417 31.4433C35.2732 28.4803 36.646 24.0099 37.5784 22.1451C39.5675 18.9957 43.2246 18.1392 44.8045 18.1047H54.802C55.9416 18.5191 57.9014 17.0342 58.7388 16.2399C58.656 17.8768 57.4438 19.0975 56.8481 19.5033C56.4959 19.897 50.5026 21.2041 47.5499 21.8084C45.5608 22.6165 44.6664 24.597 44.4678 25.4863C43.5613 27.6 49.5961 31.3034 49.5961 31.1584C49.5961 31.0424 46.9197 28.5028 45.5815 27.2475C44.6906 25.5691 46.3218 23.9648 47.2488 23.3725C55.0877 26.9735 57.6661 31.7749 57.4946 31.7749C57.3574 31.7749 55.8942 31.4605 55.1797 31.3034V31.7749C57.6833 32.2894 59.1665 33.7898 59.5952 34.4757C59.5266 37.3565 64.3966 37.6766 66.8402 37.4766C68.6922 38.0939 69.5267 32.2465 69.7124 29.2456C70.4327 27.3251 72.3561 26.1304 73.2278 25.7732C72.4047 26.4591 72.1132 27.5737 72.0703 28.0453V38.7627C70.8699 44.3528 63.8813 44.0357 60.537 43.1784L60.2395 40.7978C60.0279 42.7023 58.0794 46.661 57.1316 48.4023C58.8773 54.38 54.685 56.1169 52.3706 56.2381C49.6726 56.873 45.9242 52.2486 44.3873 49.857C39.7728 46.5704 39.1464 43.0873 39.4099 41.7567C37.6113 45.7242 41.6434 49.2529 43.8842 50.5213C46.6704 56.1246 49.9467 57.3449 51.2366 57.2546C49.0696 61.8053 54.5387 69.4183 57.5442 72.6559L71.7459 74.6682H48.5665V70.1793C48.0403 67.1455 44.555 64.2716 42.8781 63.2139C43.7165 61.7434 45.347 58.7792 45.1612 58.6864C44.9755 58.5935 44.5679 59.112 44.3873 59.3829L41.1367 64.1426C41.0129 64.9475 38.0926 64.478 36.6479 64.1426C35.5335 63.3068 32.0817 62.4787 30.4951 62.1691C34.7363 57.2778 35.3838 54.6619 35.1774 53.9654C35.2084 54.3368 31.527 59.1765 29.6825 61.5499C26.7415 64.6147 31.3207 73.6104 33.9778 77.7252L55.268 80.8695Z" fill="#043253" stroke="#043253" stroke-width="0.212562"/>
<path d="M50.8815 43.4666L48.4591 40.1789L48.2168 42.1169C48.023 43.1136 49.9125 43.6396 50.8815 43.778V43.4666Z" fill="white" stroke="#043253" stroke-width="0.212562"/>
<path d="M71.3087 8.94938C57.281 -2.55084 43.2427 4.15762 37.977 8.94938C47.3117 -2.02771 61.5272 0.231225 67.4681 2.73283C79.2426 7.86706 82.7499 20.1782 83.0317 25.692C82.7265 43.9027 68.8785 50.6567 61.9927 51.7573C62.8742 49.8685 64.2488 48.6092 64.826 48.2157C66.0852 48.0898 69.6725 45.4706 71.3087 44.1767C86.7266 29.1379 77.7328 14.4257 71.3087 8.94938Z" fill="#D3DDE6" stroke="#D3DDE6" stroke-width="0.352562"/>
</svg>
