<svg width="203" height="256" viewBox="0 0 203 256" fill="none" xmlns="http://www.w3.org/2000/svg">
<path d="M107.215 109.07C102.009 118.607 98.7878 123.832 97.8279 125.253C97.0835 124.662 96.3675 117.331 96.1026 113.74C96.4453 106.543 93.7323 104.858 92.3329 104.915C84.1081 105.464 77.4826 117.653 75.1979 123.678C68.8923 139.1 81.2523 148.496 88.2205 151.266C104.807 156.955 113.238 148.895 115.38 144.155C121.343 128.116 116.683 115.426 113.608 111.085C111.396 107.031 108.425 108.052 107.215 109.07Z" fill="#9BDFFC" stroke="#9BDFFC" stroke-width="4"/>
<path d="M43.1391 144.964C48.3453 154.502 51.5666 159.727 52.5264 161.147C53.2709 160.556 53.9868 153.226 54.2517 149.634C53.909 142.438 56.6221 140.753 58.0214 140.81C66.2462 141.358 72.8718 153.547 75.1564 159.573C81.4621 174.994 69.1021 184.39 62.1338 187.16C45.5471 192.849 37.1167 184.79 34.9748 180.049C29.0119 164.011 33.6713 151.32 36.7465 146.98C38.958 142.925 41.9297 143.947 43.1391 144.964Z" fill="#9BDFFC" stroke="#9BDFFC" stroke-width="4"/>
<path d="M21.9035 173.336C-16.7827 189.184 0.784634 258.195 62.7484 253.521" stroke="url(#paint0_linear_3535_1381)" stroke-width="3" stroke-dasharray="6 6"/>
<path d="M152.291 1.35938C196.309 21.8866 246.749 78.6309 127.185 126.675" stroke="#9BDFFC" stroke-width="3" stroke-dasharray="6 6"/>
<defs>
<linearGradient id="paint0_linear_3535_1381" x1="12.9471" y1="168.135" x2="35.0507" y2="227.093" gradientUnits="userSpaceOnUse">
<stop stop-color="#9BDFFC"/>
<stop offset="1" stop-color="white" stop-opacity="0"/>
</linearGradient>
</defs>
</svg>
