<svg width="463" height="449" viewBox="0 0 463 449" fill="none" xmlns="http://www.w3.org/2000/svg">
<path d="M307.179 448.186H83.4562L90.8597 400.951C94.5549 398.179 93.6311 372.389 92.7073 359.841L90.8597 344.829C87.7187 338.732 105.256 318.577 114.417 309.262L129.891 276.929L122.269 283.395L123.424 262.841L128.274 245.519L118.574 264.919V292.633L86.2406 337.9V352.45L69.612 362.843H55.9857C44.1608 363.213 39.819 354.837 39.1262 350.603C35.8004 358.531 44.0532 363.914 48.5953 365.615C37.3248 373.929 36.0468 381.089 36.8166 383.629L20.188 382.243L18.3404 385.477C34.0452 381.597 37.2016 391.558 36.8166 397.024L77.4644 402.798H1.24976L25.4998 344.829C25.4998 326.722 38.5872 322.657 45.1309 322.888L62.6833 276.929L55.9857 283.395C37.3246 285.797 23.8831 274.696 19.495 268.845C15.8878 249.261 20.998 236.175 24.004 232.08L52.1579 205.457C55.0793 197.918 53.3751 194.149 52.1579 193.206C51.9694 203.702 49.6449 203.548 48.5061 202.159C37.6687 191.981 39.1215 179.07 41.2026 173.887C41.2969 177.657 47.3044 179.591 50.2965 180.087C41.6843 176.642 46.7081 162.422 50.2965 155.743C64.0759 177.718 67.1619 187.772 66.9825 190.052C70.4273 197.594 49.0407 220.202 37.9167 230.564C19.4007 243.89 30.2017 260.767 37.9167 267.54C67.198 272.911 99.2781 234.021 111.658 213.905C140.509 161.565 163.719 135.01 171.718 128.274C187.628 115.638 203.038 111.635 208.754 111.214C196.649 121.013 194.103 144.983 194.343 155.743C193.306 168.309 215.239 187.399 226.335 195.373C221.032 191.223 211.156 178.849 206.881 173.18C195.929 156.694 203.566 131.821 208.754 121.445C219.822 103.922 240.17 99.1567 248.96 98.9646H304.586C310.927 101.27 321.831 93.0081 326.491 88.5887C326.029 97.6964 319.285 104.489 315.971 106.746C314.011 108.937 280.664 116.21 264.236 119.572C253.168 124.068 248.192 135.088 247.087 140.035C242.043 151.796 275.62 172.402 275.62 171.595C275.62 170.95 260.729 156.819 253.284 149.835C248.326 140.497 257.402 131.57 262.56 128.274C306.175 148.311 320.522 175.025 319.568 175.025C318.805 175.025 310.663 173.276 306.687 172.402V175.025C320.617 177.888 328.87 186.236 331.255 190.052C330.874 206.081 357.97 207.862 371.566 206.749C381.871 210.184 386.514 177.649 387.547 160.952C391.555 150.266 402.257 143.62 407.107 141.632C402.527 145.448 400.905 151.65 400.666 154.274V213.905C393.988 245.009 355.103 243.244 336.496 238.474L334.84 225.229C333.663 235.825 322.821 257.851 317.548 267.54C327.261 300.8 303.935 310.464 291.058 311.138C276.046 314.67 255.19 288.94 246.639 275.634C220.964 257.347 217.479 237.967 218.945 230.564C208.938 252.639 231.372 272.273 243.84 279.33C259.342 310.507 277.571 317.296 284.748 316.794C272.691 342.114 303.121 384.472 319.844 402.486L398.862 413.682H269.892V388.707C266.964 371.826 247.572 355.836 238.242 349.951C242.907 341.769 251.978 325.277 250.945 324.76C249.911 324.243 247.644 327.128 246.639 328.636L228.553 355.119C227.864 359.597 211.615 356.985 203.577 355.119C197.376 350.468 178.171 345.86 169.343 344.138C192.941 316.923 196.544 302.368 195.395 298.492C195.568 300.559 175.085 327.487 164.822 340.693C148.458 357.745 173.936 407.797 188.721 430.692L307.179 448.186Z" fill="#043253" stroke="#043253" stroke-width="1.18269"/>
<path d="M282.772 240.073L269.294 221.781L267.946 232.563C266.868 238.109 277.381 241.036 282.772 241.806V240.073Z" fill="white" stroke="#043253" stroke-width="1.18269"/>
<path d="M396.429 48.0207C318.379 -15.9663 240.271 21.3595 210.973 48.0207C262.91 -13.0556 342.005 -0.486923 375.06 13.432C440.573 41.9987 460.088 110.498 461.656 141.176C459.958 242.5 382.908 280.079 344.595 286.203C349.5 275.693 357.148 268.687 360.359 266.498C367.366 265.797 387.325 251.224 396.429 244.025C482.214 160.349 432.173 78.4907 396.429 48.0207Z" fill="#D3DDE6" stroke="#D3DDE6" stroke-width="1.96165"/>
</svg>
