<svg width="112" height="110" viewBox="0 0 112 110" fill="none" xmlns="http://www.w3.org/2000/svg">
<path d="M95.3522 7.93093C88.9048 19.7418 84.9156 26.2127 83.7269 27.9718C82.8049 27.24 81.9184 18.162 81.5903 13.7144C82.0147 4.80198 78.6549 2.71541 76.9219 2.78618C66.7364 3.46522 58.5313 18.5597 55.702 26.0221C47.8931 45.1201 63.1997 56.7557 71.8292 60.1863C92.37 67.2314 102.81 57.2509 105.463 51.38C112.847 31.5181 107.077 15.8022 103.269 10.427C100.53 5.40602 96.8499 6.67088 95.3522 7.93093Z" fill="#9BDFFC" stroke="#9BDFFC" stroke-width="4"/>
<path d="M16.0002 52.3843C22.4476 64.1951 26.4368 70.6661 27.6255 72.4252C28.5475 71.6934 29.4341 62.6153 29.7621 58.1677C29.3377 49.2553 32.6975 47.1687 34.4305 47.2395C44.616 47.9186 52.8211 63.0131 55.6504 70.4754C63.4593 89.5734 48.1527 101.209 39.5233 104.64C18.9824 111.685 8.5422 101.704 5.88971 95.8333C-1.49482 75.9714 4.27546 60.2555 8.08366 54.8804C10.8224 49.8594 14.5025 51.1242 16.0002 52.3843Z" fill="#9BDFFC" stroke="#9BDFFC" stroke-width="4"/>
</svg>
