<svg width="33" height="33" viewBox="0 0 33 33" fill="none" xmlns="http://www.w3.org/2000/svg">
<path d="M22.6776 17.3846L15.9564 10.6186L20.9301 5.68971L19.6306 4.39027L11.0723 12.9486C10.7138 13.3071 10.2956 13.4863 9.81763 13.4863C9.33967 13.4863 8.92146 13.3071 8.563 12.9486C8.20453 12.5902 8.0253 12.1645 8.0253 11.6716C8.0253 11.1787 8.20453 10.753 8.563 10.3946L17.0766 1.88101C17.7935 1.16408 18.6374 0.805617 19.6082 0.805617C20.5791 0.805617 21.423 1.16408 22.1399 1.88101L23.4393 3.18045L25.6797 0.940042C26.0382 0.581577 26.4639 0.402344 26.9568 0.402344C27.4497 0.402344 27.8753 0.581577 28.2338 0.940042L32.401 5.1072C32.7594 5.46567 32.9387 5.89135 32.9387 6.38424C32.9387 6.87713 32.7594 7.3028 32.401 7.66127L22.6776 17.3846ZM2.46909 32.6642C1.96126 32.6642 1.53558 32.4925 1.19205 32.1489C0.848523 31.8054 0.676758 31.3797 0.676758 30.8719V27.4217C0.676758 26.9437 0.766374 26.4882 0.945607 26.055C1.12484 25.6219 1.37875 25.241 1.70735 24.9124L13.4023 13.1727L20.1683 19.8939L8.42857 31.6337C8.09998 31.9622 7.71911 32.2162 7.28597 32.3954C6.85282 32.5746 6.39727 32.6642 5.91932 32.6642H2.46909Z" fill="white"/>
</svg>
