<svg width="40" height="30" viewBox="0 0 40 30" fill="none" xmlns="http://www.w3.org/2000/svg">
<path d="M23.7122 4.61752V0.746094H39.1979V4.61752H23.7122ZM23.7122 12.3604V8.48895H39.1979V12.3604H23.7122ZM23.7122 20.1032V16.2318H39.1979V20.1032H23.7122ZM12.0979 18.1675C10.4848 18.1675 9.1137 17.6029 7.98453 16.4738C6.85537 15.3446 6.29078 13.9735 6.29078 12.3604C6.29078 10.7473 6.85537 9.37615 7.98453 8.24698C9.1137 7.11782 10.4848 6.55324 12.0979 6.55324C13.711 6.55324 15.0821 7.11782 16.2113 8.24698C17.3405 9.37615 17.9051 10.7473 17.9051 12.3604C17.9051 13.9735 17.3405 15.3446 16.2113 16.4738C15.0821 17.6029 13.711 18.1675 12.0979 18.1675ZM0.483643 29.7818V26.1039C0.483643 25.4264 0.644952 24.7812 0.967571 24.1682C1.29019 23.5553 1.74186 23.0713 2.32257 22.7164C3.77436 21.8454 5.31486 21.1921 6.94409 20.7565C8.57331 20.321 10.2913 20.1032 12.0979 20.1032C13.9046 20.1032 15.6225 20.321 17.2518 20.7565C18.881 21.1921 20.4215 21.8454 21.8733 22.7164C22.454 23.0713 22.9057 23.5553 23.2283 24.1682C23.5509 24.7812 23.7122 25.4264 23.7122 26.1039V29.7818H0.483643Z" fill="white"/>
</svg>
