<svg width="37" height="27" viewBox="0 0 37 27" fill="none" xmlns="http://www.w3.org/2000/svg">
<path fill-rule="evenodd" clip-rule="evenodd" d="M25.7673 15.2773C28.0175 16.8048 29.5942 18.8743 29.5942 21.6335V26.5608H36.1639V21.6335C36.1639 18.053 30.3004 15.9343 25.7673 15.2773Z" fill="white"/>
<path d="M13.1703 13.4285C16.7986 13.4285 19.74 10.4871 19.74 6.85876C19.74 3.23041 16.7986 0.289062 13.1703 0.289062C9.54194 0.289062 6.60059 3.23041 6.60059 6.85876C6.60059 10.4871 9.54194 13.4285 13.1703 13.4285Z" fill="white"/>
<path fill-rule="evenodd" clip-rule="evenodd" d="M23.025 13.4285C26.6548 13.4285 29.5947 10.4885 29.5947 6.85876C29.5947 3.229 26.6548 0.289062 23.025 0.289062C22.2531 0.289062 21.5304 0.453304 20.8406 0.683244C22.2038 2.37494 23.025 4.52652 23.025 6.85876C23.025 9.191 22.2038 11.3426 20.8406 13.0343C21.5304 13.2642 22.2531 13.4285 23.025 13.4285Z" fill="white"/>
<path fill-rule="evenodd" clip-rule="evenodd" d="M13.1704 15.0664C8.78512 15.0664 0.0310059 17.2673 0.0310059 21.6361V26.5634H26.3098V21.6361C26.3098 17.2673 17.5557 15.0664 13.1704 15.0664Z" fill="white"/>
</svg>
