<svg width="29" height="29" viewBox="0 0 29 29" fill="none" xmlns="http://www.w3.org/2000/svg">
<path d="M8.43061 0.121094C4.13572 0.121094 0.652832 3.60398 0.652832 7.89887V20.3433C0.652832 24.6382 4.13572 28.1211 8.43061 28.1211H20.8751C25.1699 28.1211 28.6528 24.6382 28.6528 20.3433V7.89887C28.6528 3.60398 25.1699 0.121094 20.8751 0.121094H8.43061ZM23.9862 3.2322C24.8448 3.2322 25.5417 3.92909 25.5417 4.78776C25.5417 5.64643 24.8448 6.34332 23.9862 6.34332C23.1275 6.34332 22.4306 5.64643 22.4306 4.78776C22.4306 3.92909 23.1275 3.2322 23.9862 3.2322ZM14.6528 6.34332C18.9477 6.34332 22.4306 9.82621 22.4306 14.1211C22.4306 18.416 18.9477 21.8989 14.6528 21.8989C10.3579 21.8989 6.87505 18.416 6.87505 14.1211C6.87505 9.82621 10.3579 6.34332 14.6528 6.34332ZM14.6528 9.45443C13.4152 9.45443 12.2282 9.94609 11.353 10.8213C10.4778 11.6964 9.98617 12.8834 9.98617 14.1211C9.98617 15.3588 10.4778 16.5458 11.353 17.4209C12.2282 18.2961 13.4152 18.7878 14.6528 18.7878C15.8905 18.7878 17.0775 18.2961 17.9527 17.4209C18.8278 16.5458 19.3195 15.3588 19.3195 14.1211C19.3195 12.8834 18.8278 11.6964 17.9527 10.8213C17.0775 9.94609 15.8905 9.45443 14.6528 9.45443Z" fill="white"/>
</svg>
