<svg width="51" height="51" viewBox="0 0 51 51" fill="none" xmlns="http://www.w3.org/2000/svg">
<path d="M14.5841 0.613281C6.91463 0.613281 0.69519 6.83273 0.69519 14.5022V36.7244C0.69519 44.3938 6.91463 50.6133 14.5841 50.6133H36.8063C44.4757 50.6133 50.6952 44.3938 50.6952 36.7244V14.5022C50.6952 6.83273 44.4757 0.613281 36.8063 0.613281H14.5841ZM42.3619 6.16884C43.8952 6.16884 45.1396 7.41328 45.1396 8.94661C45.1396 10.4799 43.8952 11.7244 42.3619 11.7244C40.8285 11.7244 39.5841 10.4799 39.5841 8.94661C39.5841 7.41328 40.8285 6.16884 42.3619 6.16884ZM25.6952 11.7244C33.3646 11.7244 39.5841 17.9438 39.5841 25.6133C39.5841 33.2827 33.3646 39.5022 25.6952 39.5022C18.0257 39.5022 11.8063 33.2827 11.8063 25.6133C11.8063 17.9438 18.0257 11.7244 25.6952 11.7244ZM25.6952 17.2799C23.4851 17.2799 21.3654 18.1579 19.8026 19.7207C18.2398 21.2835 17.3619 23.4031 17.3619 25.6133C17.3619 27.8234 18.2398 29.943 19.8026 31.5058C21.3654 33.0686 23.4851 33.9466 25.6952 33.9466C27.9053 33.9466 30.0249 33.0686 31.5877 31.5058C33.1506 29.943 34.0285 27.8234 34.0285 25.6133C34.0285 23.4031 33.1506 21.2835 31.5877 19.7207C30.0249 18.1579 27.9053 17.2799 25.6952 17.2799Z" fill="#0077B6"/>
</svg>
