<svg width="81" height="63" viewBox="0 0 81 63" fill="none" xmlns="http://www.w3.org/2000/svg">
<path d="M73.6697 2.14631C69.6333 0.87358 65.1969 0.328125 60.9424 0.328125C53.8515 0.328125 46.2151 1.78267 40.9424 5.78267C35.6697 1.78267 28.0333 0.328125 20.9424 0.328125C13.8515 0.328125 6.21511 1.78267 0.942383 5.78267V59.0554C0.942383 59.9645 1.85147 60.8736 2.76056 60.8736C3.1242 60.8736 3.30602 60.6918 3.66966 60.6918C8.57875 58.3281 15.6697 56.6918 20.9424 56.6918C28.0333 56.6918 35.6697 58.1463 40.9424 62.1463C45.8515 59.0554 54.7606 56.6918 60.9424 56.6918C66.9424 56.6918 73.1242 57.7827 78.2151 60.5099C78.5788 60.6918 78.7606 60.6918 79.1242 60.6918C80.0333 60.6918 80.9424 59.7827 80.9424 58.8736V5.78267C78.7606 4.14631 76.3969 3.0554 73.6697 2.14631ZM73.6697 51.2372C69.6697 49.9645 65.306 49.419 60.9424 49.419C54.7606 49.419 45.8515 51.7827 40.9424 54.8736V13.0554C45.8515 9.96449 54.7606 7.60085 60.9424 7.60085C65.306 7.60085 69.6697 8.14631 73.6697 9.41903V51.2372Z" fill="#18A4E1"/>
</svg>
