<svg width="262" height="255" viewBox="0 0 262 255" fill="none" xmlns="http://www.w3.org/2000/svg">
<path d="M173.324 253.875H46.9837L51.1646 227.2C53.2513 225.635 52.7296 211.071 52.2079 203.985L51.1646 195.507C49.3908 192.064 59.2943 180.683 64.4678 175.422L73.2062 157.163L68.9022 160.815L69.5543 149.207L72.2932 139.426L66.8154 150.381V166.032L48.5561 191.595V199.811L39.1656 205.68H31.4705C24.7928 205.889 22.3409 201.159 21.9496 198.768C20.0715 203.245 24.732 206.285 27.297 207.245C20.9324 211.941 20.2107 215.984 20.6454 217.418L11.2549 216.636L10.2115 218.462C19.0803 216.271 20.8628 221.896 20.6454 224.983L43.6 228.243H0.560059L14.2546 195.507C14.2546 185.282 21.6452 182.987 25.3406 183.117L35.2528 157.163L31.4705 160.815C20.9323 162.171 13.3416 155.902 10.8635 152.598C8.82645 141.538 11.7123 134.149 13.4098 131.836L29.3089 116.802C30.9587 112.545 29.9963 110.416 29.3089 109.884C29.2025 115.811 27.8897 115.724 27.2467 114.939C21.1265 109.192 21.947 101.901 23.1222 98.974C23.1754 101.103 26.5681 102.195 28.2577 102.475C23.3943 100.53 26.2313 92.4996 28.2577 88.7278C36.0392 101.137 37.7819 106.815 37.6806 108.103C39.626 112.362 27.5485 125.129 21.2666 130.98C10.8103 138.506 16.9098 148.036 21.2666 151.861C37.8023 154.894 55.9186 132.933 62.9098 121.573C79.2023 92.0154 92.3098 77.0192 96.827 73.2158C105.811 66.0795 114.514 63.8194 117.742 63.5814C110.906 69.1152 109.468 82.6514 109.604 88.7278C109.018 95.8242 121.404 106.604 127.67 111.107C124.676 108.764 119.098 101.776 116.684 98.5748C110.499 89.2649 114.812 75.2187 117.742 69.3594C123.992 59.4635 135.483 56.7726 140.447 56.6641H171.86C175.441 57.9661 181.599 53.3003 184.23 50.8047C183.97 55.9479 180.161 59.7836 178.289 61.0586C177.182 62.2956 158.351 66.4025 149.073 68.3014C142.823 70.8405 140.013 77.0633 139.389 79.8574C136.541 86.499 155.503 98.135 155.503 97.6796C155.503 97.3153 147.093 89.3355 142.889 85.3912C140.089 80.1178 145.215 75.077 148.127 73.2158C172.758 84.5305 180.859 99.6167 180.321 99.6167C179.889 99.6167 175.292 98.6289 173.047 98.135V99.6167C180.913 101.233 185.574 105.948 186.921 108.103C186.705 117.155 202.007 118.16 209.685 117.532C215.504 119.471 218.126 101.098 218.71 91.6695C220.973 85.635 227.017 81.8814 229.755 80.7589C227.169 82.9141 226.253 86.4162 226.119 87.8979V121.573C222.347 139.137 200.388 138.141 189.88 135.447L188.945 127.967C188.28 133.951 182.158 146.39 179.18 151.861C184.665 170.643 171.492 176.101 164.22 176.482C155.743 178.476 143.965 163.946 139.136 156.432C124.637 146.105 122.669 135.161 123.497 130.98C117.845 143.446 130.515 154.534 137.555 158.519C146.31 176.125 156.604 179.959 160.657 179.675C153.848 193.974 171.033 217.894 180.476 228.067L225.099 234.39H152.268V220.286C150.614 210.753 139.663 201.723 134.394 198.4C137.029 193.78 142.152 184.466 141.568 184.174C140.984 183.882 139.704 185.512 139.136 186.363L128.923 201.318C128.534 203.847 119.358 202.372 114.818 201.318C111.317 198.692 100.471 196.09 95.4857 195.117C108.812 179.748 110.846 171.529 110.198 169.34C110.295 170.508 98.7281 185.714 92.9324 193.172C83.6916 202.801 98.0796 231.066 106.429 243.995L173.324 253.875Z" fill="#043253" stroke="white" stroke-width="0.4"/>
<path d="M159.54 136.346L151.929 126.016L151.168 132.105C150.559 135.236 156.496 136.889 159.54 137.324V136.346Z" fill="white" stroke="white" stroke-width="0.4"/>
<path d="M223.725 27.8912C179.649 -8.24316 135.539 12.8352 118.994 27.8912C148.324 -6.59946 192.991 0.498264 211.658 8.35846C248.654 24.4905 259.675 63.1729 260.56 80.4975C259.601 137.717 216.09 158.938 194.454 162.396C197.223 156.461 201.542 152.505 203.356 151.268C207.313 150.873 218.584 142.643 223.725 138.578C272.17 91.3249 243.91 45.0981 223.725 27.8912Z" fill="#D3DDE6" stroke="#D3DDE6" stroke-width="1.96165"/>
</svg>
