<svg width="30" height="30" viewBox="0 0 30 30" fill="none" xmlns="http://www.w3.org/2000/svg">
<path d="M27.1023 29.4886L17.5568 19.9432C16.7045 20.625 15.7244 21.1648 14.6165 21.5625C13.5085 21.9602 12.3295 22.1591 11.0795 22.1591C7.98295 22.1591 5.3625 21.0869 3.21818 18.9426C1.07273 16.7972 0 14.1761 0 11.0795C0 7.98295 1.07273 5.36193 3.21818 3.21648C5.3625 1.07216 7.98295 0 11.0795 0C14.1761 0 16.7972 1.07216 18.9426 3.21648C21.0869 5.36193 22.1591 7.98295 22.1591 11.0795C22.1591 12.3295 21.9602 13.5085 21.5625 14.6165C21.1648 15.7244 20.625 16.7045 19.9432 17.5568L29.5312 27.1449C29.8438 27.4574 30 27.8409 30 28.2955C30 28.75 29.8295 29.1477 29.4886 29.4886C29.1761 29.8011 28.7784 29.9574 28.2955 29.9574C27.8125 29.9574 27.4148 29.8011 27.1023 29.4886ZM11.0795 18.75C13.2102 18.75 15.0216 18.0045 16.5136 16.5136C18.0045 15.0216 18.75 13.2102 18.75 11.0795C18.75 8.94886 18.0045 7.1375 16.5136 5.64545C15.0216 4.15455 13.2102 3.40909 11.0795 3.40909C8.94886 3.40909 7.1375 4.15455 5.64545 5.64545C4.15454 7.1375 3.40909 8.94886 3.40909 11.0795C3.40909 13.2102 4.15454 15.0216 5.64545 16.5136C7.1375 18.0045 8.94886 18.75 11.0795 18.75Z" fill="black" fill-opacity="0.5"/>
</svg>
