<svg width="61" height="61" viewBox="0 0 61 61" fill="none" xmlns="http://www.w3.org/2000/svg">
<circle cx="30.0371" cy="30.8672" r="28" fill="white" stroke="#18A4E1" stroke-width="4"/>
<path d="M40.4371 17.8672H24.8371C23.4071 17.8672 22.2371 19.0372 22.2371 20.4672V36.0672C22.2371 37.4972 23.4071 38.6672 24.8371 38.6672H40.4371C41.8671 38.6672 43.0371 37.4972 43.0371 36.0672V20.4672C43.0371 19.0372 41.8671 17.8672 40.4371 17.8672ZM30.6481 33.4672L26.1371 28.9172L27.9571 27.0842L30.6481 29.7882L37.3171 23.0672L39.1371 24.9002L30.6481 33.4672ZM19.6371 23.0672H17.0371V41.2672C17.0371 42.6972 18.2071 43.8672 19.6371 43.8672H37.8371V41.2672H19.6371V23.0672Z" fill="#0077B6"/>
</svg>
