<svg width="26" height="25" viewBox="0 0 26 25" fill="none" xmlns="http://www.w3.org/2000/svg">
<path d="M13.019 12.4961C11.3003 12.4961 9.82894 11.8841 8.60498 10.6602C7.38102 9.4362 6.76904 7.96484 6.76904 6.24609C6.76904 4.52734 7.38102 3.05599 8.60498 1.83203C9.82894 0.608073 11.3003 -0.00390625 13.019 -0.00390625C14.7378 -0.00390625 16.2091 0.608073 17.4331 1.83203C18.6571 3.05599 19.269 4.52734 19.269 6.24609C19.269 7.96484 18.6571 9.4362 17.4331 10.6602C16.2091 11.8841 14.7378 12.4961 13.019 12.4961ZM3.64404 24.9961C2.78467 24.9961 2.04925 24.6904 1.43779 24.0789C0.825293 23.4664 0.519043 22.7305 0.519043 21.8711V20.6211C0.519043 19.7357 0.747168 18.9216 1.20342 18.1789C1.65863 17.4372 2.26383 16.8711 3.01904 16.4805C4.63363 15.6732 6.27425 15.0674 7.94092 14.6633C9.60758 14.2602 11.3003 14.0586 13.019 14.0586C14.7378 14.0586 16.4305 14.2602 18.0972 14.6633C19.7638 15.0674 21.4045 15.6732 23.019 16.4805C23.7743 16.8711 24.3795 17.4372 24.8347 18.1789C25.2909 18.9216 25.519 19.7357 25.519 20.6211V21.8711C25.519 22.7305 25.2133 23.4664 24.6019 24.0789C23.9894 24.6904 23.2534 24.9961 22.394 24.9961H3.64404Z" fill="#0077B6"/>
</svg>
