<svg width="184" height="231" viewBox="0 0 184 231" fill="none" xmlns="http://www.w3.org/2000/svg">
<path d="M97.1925 99.1855C92.5069 107.769 89.6078 112.472 88.7439 113.75C88.0739 113.218 87.4296 106.621 87.1912 103.389C87.4996 96.9116 85.0578 95.3951 83.7984 95.4466C76.3961 95.9401 70.4331 106.91 68.3769 112.333C62.7018 126.213 73.8258 134.669 80.0973 137.162C95.0253 142.282 102.613 135.029 104.54 130.762C109.907 116.327 105.713 104.906 102.946 101C100.956 97.3505 98.281 98.2698 97.1925 99.1855Z" fill="#9BDFFC" stroke="#9BDFFC" stroke-width="4"/>
<path d="M39.5239 131.49C44.2095 140.074 47.1086 144.776 47.9725 146.055C48.6426 145.523 49.2869 138.926 49.5253 135.693C49.2169 129.216 51.6586 127.7 52.918 127.751C60.3203 128.245 66.2833 139.215 68.3395 144.638C74.0146 158.517 62.8906 166.974 56.6192 169.467C41.6912 174.587 34.1038 167.333 32.1761 163.067C26.8094 148.632 31.0029 137.211 33.7705 133.304C35.7609 129.655 38.4354 130.574 39.5239 131.49Z" fill="#9BDFFC" stroke="#9BDFFC" stroke-width="4"/>
<path d="M20.412 157.027C-14.4056 171.291 1.40496 233.401 57.1724 229.194" stroke="url(#paint0_linear_2236_1802)" stroke-width="3" stroke-dasharray="6 6"/>
<path d="M137.761 2.24609C177.377 20.7207 222.773 71.791 115.165 115.031" stroke="#9BDFFC" stroke-width="3" stroke-dasharray="6 6"/>
<defs>
<linearGradient id="paint0_linear_2236_1802" x1="12.3512" y1="152.346" x2="32.2447" y2="205.409" gradientUnits="userSpaceOnUse">
<stop stop-color="#9BDFFC"/>
<stop offset="1" stop-color="white" stop-opacity="0"/>
</linearGradient>
</defs>
</svg>
