<svg width="205" height="200" viewBox="0 0 205 200" fill="none" xmlns="http://www.w3.org/2000/svg">
<path d="M176.942 11.7241C164.858 33.8611 157.381 45.9895 155.153 49.2866C153.425 47.915 151.764 30.9 151.149 22.564C151.944 5.85956 145.647 1.94872 142.399 2.08135C123.308 3.35407 107.93 31.6456 102.627 45.6322C87.991 81.4275 116.68 103.236 132.854 109.666C171.353 122.87 190.921 104.164 195.892 93.1603C209.733 55.9333 198.918 26.4772 191.78 16.4025C186.647 6.9917 179.749 9.36241 176.942 11.7241Z" fill="#C5E2EF" fill-opacity="0.5" stroke="#9BDFFC" stroke-opacity="0.5" stroke-width="4"/>
<path d="M28.2152 95.0444C40.2994 117.181 47.7762 129.31 50.0041 132.607C51.7322 131.235 53.3939 114.22 54.0087 105.884C53.2133 89.1799 59.5105 85.269 62.7585 85.4017C81.849 86.6744 97.2275 114.966 102.53 128.953C117.166 164.748 88.4777 186.556 72.3038 192.986C33.8046 206.191 14.2368 187.484 9.26536 176.481C-4.57525 139.254 6.23981 109.797 13.3774 99.7228C18.5105 90.312 25.4081 92.6827 28.2152 95.0444Z" fill="#C5E2EF" fill-opacity="0.5" stroke="#9BDFFC" stroke-opacity="0.5" stroke-width="4"/>
</svg>
