<svg width="61" height="61" viewBox="0 0 61 61" fill="none" xmlns="http://www.w3.org/2000/svg">
<circle cx="30.3604" cy="30.8359" r="28" fill="white" stroke="#18A4E1" stroke-width="4"/>
<path d="M22.5826 28.9693V23.0582H19.4715V24.6137C19.4715 25.5989 19.7566 26.4869 20.327 27.2776C20.8974 28.0683 21.6492 28.6322 22.5826 28.9693ZM38.1381 28.9693C39.0715 28.6322 39.8233 28.0683 40.3937 27.2776C40.9641 26.4869 41.2492 25.5989 41.2492 24.6137V23.0582H38.1381V28.9693ZM28.8048 41.7248V36.9026C27.5344 36.6174 26.4002 36.0795 25.402 35.2887C24.4039 34.498 23.6715 33.5063 23.2048 32.3137C21.2604 32.0804 19.6335 31.2313 18.3242 29.7665C17.015 28.3017 16.3604 26.5841 16.3604 24.6137V23.0582C16.3604 22.2026 16.665 21.4702 17.2742 20.8609C17.8835 20.2517 18.6159 19.947 19.4715 19.947H22.5826C22.5826 19.0915 22.8872 18.3591 23.4965 17.7498C24.1057 17.1406 24.8381 16.8359 25.6937 16.8359H35.027C35.8826 16.8359 36.615 17.1406 37.2242 17.7498C37.8335 18.3591 38.1381 19.0915 38.1381 19.947H41.2492C42.1048 19.947 42.8372 20.2517 43.4465 20.8609C44.0557 21.4702 44.3604 22.2026 44.3604 23.0582V24.6137C44.3604 26.5841 43.7057 28.3017 42.3965 29.7665C41.0872 31.2313 39.4604 32.0804 37.5159 32.3137C37.0492 33.5063 36.3168 34.498 35.3187 35.2887C34.3205 36.0795 33.1863 36.6174 31.9159 36.9026V41.7248H36.5826C37.0233 41.7248 37.3928 41.8739 37.6909 42.1721C37.9891 42.4702 38.1381 42.8396 38.1381 43.2804C38.1381 43.7211 37.9891 44.0906 37.6909 44.3887C37.3928 44.6869 37.0233 44.8359 36.5826 44.8359H24.1381C23.6974 44.8359 23.3279 44.6869 23.0298 44.3887C22.7316 44.0906 22.5826 43.7211 22.5826 43.2804C22.5826 42.8396 22.7316 42.4702 23.0298 42.1721C23.3279 41.8739 23.6974 41.7248 24.1381 41.7248H28.8048Z" fill="#0077B6"/>
</svg>
