<svg width="30" height="31" viewBox="0 0 30 31" fill="none" xmlns="http://www.w3.org/2000/svg">
<path d="M16.6667 14.7201L20.8333 18.8867C21.1389 19.1923 21.2917 19.5812 21.2917 20.0534C21.2917 20.5256 21.1389 20.9145 20.8333 21.2201C20.5278 21.5256 20.1389 21.6784 19.6667 21.6784C19.1944 21.6784 18.8056 21.5256 18.5 21.2201L13.8333 16.5534C13.6667 16.3867 13.5417 16.1989 13.4583 15.9901C13.375 15.7823 13.3333 15.5673 13.3333 15.3451V8.72005C13.3333 8.24783 13.4933 7.85172 13.8133 7.53172C14.1322 7.21283 14.5278 7.05339 15 7.05339C15.4722 7.05339 15.8683 7.21283 16.1883 7.53172C16.5072 7.85172 16.6667 8.24783 16.6667 8.72005V14.7201ZM15 30.3867C11.6389 30.3867 8.625 29.3934 5.95833 27.4067C3.29167 25.4212 1.5 22.8312 0.583333 19.6367C0.444444 19.1367 0.493333 18.6645 0.73 18.2201C0.965555 17.7756 1.33333 17.4978 1.83333 17.3867C2.30556 17.2756 2.72944 17.3795 3.105 17.6984C3.47944 18.0184 3.73611 18.4145 3.875 18.8867C4.59722 21.3312 5.99333 23.3034 8.06333 24.8034C10.1322 26.3034 12.4444 27.0534 15 27.0534C18.25 27.0534 21.0067 25.9212 23.27 23.6567C25.5344 21.3934 26.6667 18.6367 26.6667 15.3867C26.6667 12.1367 25.5344 9.3795 23.27 7.11505C21.0067 4.85172 18.25 3.72005 15 3.72005C13.0833 3.72005 11.2917 4.1645 9.625 5.05339C7.95833 5.94227 6.55556 7.1645 5.41667 8.72005H8.33333C8.80556 8.72005 9.20167 8.8795 9.52167 9.19838C9.84056 9.51838 10 9.9145 10 10.3867C10 10.8589 9.84056 11.2545 9.52167 11.5734C9.20167 11.8934 8.80556 12.0534 8.33333 12.0534H1.66667C1.19444 12.0534 0.798889 11.8934 0.48 11.5734C0.16 11.2545 0 10.8589 0 10.3867V3.72005C0 3.24783 0.16 2.85172 0.48 2.53172C0.798889 2.21283 1.19444 2.05339 1.66667 2.05339C2.13889 2.05339 2.535 2.21283 2.855 2.53172C3.17389 2.85172 3.33333 3.24783 3.33333 3.72005V5.97005C4.75 4.19227 6.47944 2.81727 8.52167 1.84505C10.5628 0.87283 12.7222 0.386719 15 0.386719C17.0833 0.386719 19.035 0.782274 20.855 1.57339C22.6739 2.36561 24.2572 3.43505 25.605 4.78172C26.9517 6.1295 28.0211 7.71283 28.8133 9.53172C29.6044 11.3517 30 13.3034 30 15.3867C30 17.4701 29.6044 19.4212 28.8133 21.2401C28.0211 23.0601 26.9517 24.6434 25.605 25.9901C24.2572 27.3378 22.6739 28.4078 20.855 29.2001C19.035 29.9912 17.0833 30.3867 15 30.3867Z" fill="black"/>
</svg>
