<svg width="30" height="30" viewBox="0 0 30 30" fill="none" xmlns="http://www.w3.org/2000/svg">
<path d="M16.6667 14.3333L20.8333 18.5C21.1389 18.8056 21.2917 19.1944 21.2917 19.6667C21.2917 20.1389 21.1389 20.5278 20.8333 20.8333C20.5278 21.1389 20.1389 21.2917 19.6667 21.2917C19.1944 21.2917 18.8056 21.1389 18.5 20.8333L13.8333 16.1667C13.6667 16 13.5417 15.8122 13.4583 15.6033C13.375 15.3956 13.3333 15.1806 13.3333 14.9583V8.33333C13.3333 7.86111 13.4933 7.465 13.8133 7.145C14.1322 6.82611 14.5278 6.66667 15 6.66667C15.4722 6.66667 15.8683 6.82611 16.1883 7.145C16.5072 7.465 16.6667 7.86111 16.6667 8.33333V14.3333ZM15 30C11.6389 30 8.625 29.0067 5.95833 27.02C3.29167 25.0344 1.5 22.4444 0.583333 19.25C0.444444 18.75 0.493333 18.2778 0.73 17.8333C0.965555 17.3889 1.33333 17.1111 1.83333 17C2.30556 16.8889 2.72944 16.9928 3.105 17.3117C3.47944 17.6317 3.73611 18.0278 3.875 18.5C4.59722 20.9444 5.99333 22.9167 8.06333 24.4167C10.1322 25.9167 12.4444 26.6667 15 26.6667C18.25 26.6667 21.0067 25.5344 23.27 23.27C25.5344 21.0067 26.6667 18.25 26.6667 15C26.6667 11.75 25.5344 8.99278 23.27 6.72833C21.0067 4.465 18.25 3.33333 15 3.33333C13.0833 3.33333 11.2917 3.77778 9.625 4.66667C7.95833 5.55556 6.55556 6.77778 5.41667 8.33333H8.33333C8.80556 8.33333 9.20167 8.49278 9.52167 8.81167C9.84056 9.13167 10 9.52778 10 10C10 10.4722 9.84056 10.8678 9.52167 11.1867C9.20167 11.5067 8.80556 11.6667 8.33333 11.6667H1.66667C1.19444 11.6667 0.798889 11.5067 0.48 11.1867C0.16 10.8678 0 10.4722 0 10V3.33333C0 2.86111 0.16 2.465 0.48 2.145C0.798889 1.82611 1.19444 1.66667 1.66667 1.66667C2.13889 1.66667 2.535 1.82611 2.855 2.145C3.17389 2.465 3.33333 2.86111 3.33333 3.33333V5.58333C4.75 3.80556 6.47944 2.43056 8.52167 1.45833C10.5628 0.486111 12.7222 0 15 0C17.0833 0 19.035 0.395555 20.855 1.18667C22.6739 1.97889 24.2572 3.04833 25.605 4.395C26.9517 5.74278 28.0211 7.32611 28.8133 9.145C29.6044 10.965 30 12.9167 30 15C30 17.0833 29.6044 19.0344 28.8133 20.8533C28.0211 22.6733 26.9517 24.2567 25.605 25.6033C24.2572 26.9511 22.6739 28.0211 20.855 28.8133C19.035 29.6044 17.0833 30 15 30Z" fill="black"/>
</svg>
