<svg width="31" height="20" viewBox="0 0 31 20" fill="none" xmlns="http://www.w3.org/2000/svg">
<path d="M1.40892 16.5107H28.6817V19.6925H1.40892V16.5107ZM2.97711 10.0675L4.1362 7.71293L5.29529 10.0675L7.06802 8.87429L5.90892 6.51974H8.22711V4.13338H5.90892L7.06802 1.79474L5.29529 0.601562L4.1362 2.9402L2.97711 0.601562L1.20438 1.79474L2.36347 4.13338H0.0452881V6.51974H2.36347L1.20438 8.87429L2.97711 10.0675ZM12.1135 8.87429L13.8862 10.0675L15.0453 7.71293L16.2044 10.0675L17.9771 8.87429L16.818 6.51974H19.1362V4.13338H16.818L17.9771 1.79474L16.2044 0.601562L15.0453 2.9402L13.8862 0.601562L12.1135 1.79474L13.2726 4.13338H10.9544V6.51974H13.2726L12.1135 8.87429ZM30.0453 4.13338H27.7271L28.8862 1.79474L27.1135 0.601562L25.9544 2.9402L24.7953 0.601562L23.0226 1.79474L24.1817 4.13338H21.8635V6.51974H24.1817L23.0226 8.87429L24.7953 10.0675L25.9544 7.71293L27.1135 10.0675L28.8862 8.87429L27.7271 6.51974H30.0453V4.13338Z" fill="#0077B6"/>
</svg>
