<svg width="31" height="31" viewBox="0 0 31 31" fill="none" xmlns="http://www.w3.org/2000/svg">
<path d="M26.4987 4.50803C23.6796 1.67386 19.9259 0.121094 15.9309 0.121094C7.69975 0.121094 0.991209 6.82964 0.991209 15.0608C0.991209 17.699 1.68468 20.2618 2.98116 22.5231L0.870605 30.2718L8.78518 28.1914C10.9711 29.3824 13.4284 30.0156 15.9309 30.0156C24.1621 30.0156 30.8706 23.307 30.8706 15.0759C30.8706 11.0809 29.3178 7.32712 26.4987 4.50803ZM15.9309 27.4829C13.6997 27.4829 11.5138 26.8799 9.59925 25.7492L9.14699 25.4779L4.44347 26.7141L5.69473 22.1311L5.39322 21.6638C4.15704 19.6889 3.49372 17.3975 3.49372 15.0608C3.49372 8.21657 9.07161 2.63868 15.9158 2.63868C19.2324 2.63868 22.353 3.93516 24.6897 6.28692C27.0415 8.63868 28.3229 11.7593 28.3229 15.0759C28.353 21.9201 22.7751 27.4829 15.9309 27.4829ZM22.745 18.1965C22.3681 18.0156 20.5289 17.111 20.1972 16.9754C19.8505 16.8548 19.6093 16.7945 19.353 17.1563C19.0967 17.5332 18.3882 18.3774 18.1771 18.6186C17.9661 18.8749 17.74 18.905 17.3631 18.709C16.9862 18.5281 15.7802 18.1211 14.3631 16.8548C13.2475 15.8598 12.5088 14.6387 12.2827 14.2618C12.0716 13.8849 12.2525 13.6889 12.4485 13.493C12.6143 13.3271 12.8254 13.0558 13.0063 12.8447C13.1872 12.6337 13.2626 12.4678 13.3832 12.2266C13.5038 11.9703 13.4435 11.7593 13.353 11.5784C13.2626 11.3975 12.5088 9.55828 12.2073 8.80451C11.9058 8.08089 11.5892 8.17134 11.3631 8.15627C11.1369 8.15627 10.8957 8.15627 10.6394 8.15627C10.3832 8.15627 9.99121 8.24672 9.64447 8.62361C9.31281 9.00049 8.34799 9.90501 8.34799 11.7442C8.34799 13.5834 9.6897 15.3623 9.87061 15.6035C10.0515 15.8598 12.5088 19.6286 16.2475 21.2417C17.1369 21.6337 17.8304 21.8598 18.3731 22.0256C19.2626 22.312 20.0766 22.2668 20.7249 22.1764C21.4485 22.0708 22.941 21.2718 23.2425 20.3975C23.559 19.5231 23.559 18.7844 23.4535 18.6186C23.348 18.4528 23.1219 18.3774 22.745 18.1965Z" fill="white"/>
</svg>
