<svg width="51" height="51" viewBox="0 0 51 51" fill="none" xmlns="http://www.w3.org/2000/svg">
<path d="M43.2326 7.67484C38.5341 2.95122 32.2778 0.363281 25.6195 0.363281C11.901 0.363281 0.720048 11.5442 0.720048 25.2628C0.720048 29.6598 1.87583 33.9311 4.03663 37.7L0.519043 50.6145L13.71 47.1472C17.3532 49.1321 21.4487 50.1874 25.6195 50.1874C39.3381 50.1874 50.519 39.0065 50.519 25.2879C50.519 18.6296 47.9311 12.3733 43.2326 7.67484ZM25.6195 45.9663C21.901 45.9663 18.2577 44.9613 15.0668 43.0768L14.313 42.6246L6.47382 44.6849L8.55924 37.0467L8.05673 36.2678C5.99643 32.9763 4.8909 29.1572 4.8909 25.2628C4.8909 13.8557 14.1874 4.55926 25.5944 4.55926C31.1221 4.55926 36.3231 6.72007 40.2175 10.6397C44.1371 14.5593 46.2728 19.7603 46.2728 25.2879C46.3231 36.6949 37.0266 45.9663 25.6195 45.9663ZM36.9763 30.4889C36.3482 30.1874 33.2829 28.6799 32.7301 28.4537C32.1522 28.2527 31.7502 28.1522 31.3231 28.7552C30.8959 29.3834 29.715 30.7904 29.3633 31.1924C29.0115 31.6196 28.6346 31.6698 28.0065 31.3432C27.3783 31.0417 25.3683 30.3633 23.0065 28.2527C21.1472 26.5944 19.916 24.5593 19.5391 23.9311C19.1874 23.303 19.4889 22.9763 19.8155 22.6497C20.0919 22.3733 20.4437 21.9211 20.7452 21.5693C21.0467 21.2175 21.1723 20.9412 21.3733 20.5392C21.5743 20.112 21.4738 19.7603 21.3231 19.4588C21.1723 19.1572 19.916 16.0919 19.4135 14.8356C18.911 13.6296 18.3834 13.7804 18.0065 13.7552C17.6296 13.7552 17.2276 13.7552 16.8004 13.7552C16.3733 13.7552 15.72 13.906 15.1422 14.5341C14.5894 15.1623 12.9814 16.6698 12.9814 19.7351C12.9814 22.8005 15.2175 25.7653 15.519 26.1673C15.8206 26.5944 19.916 32.8758 26.1472 35.5643C27.6296 36.2175 28.7854 36.5944 29.6899 36.8708C31.1723 37.3482 32.5291 37.2728 33.6095 37.1221C34.8155 36.9462 37.303 35.6145 37.8055 34.1572C38.3331 32.7 38.3331 31.4688 38.1572 31.1924C37.9814 30.916 37.6045 30.7904 36.9763 30.4889Z" fill="#0077B6"/>
</svg>
